<svg width="106" height="106" viewBox="0 0 106 106" fill="none" xmlns="http://www.w3.org/2000/svg">
<g filter="url(#filter0_d_2177_4988)">
<rect x="3" y="1" width="100" height="100" rx="50" fill="#5D3136"/>
<g clip-path="url(#clip0_2177_4988)">
<path d="M36.668 69.4173V42.334C36.668 40.6764 37.3264 39.0867 38.4986 37.9146C39.6707 36.7425 41.2604 36.084 42.918 36.084H63.7513C65.4089 36.084 66.9986 36.7425 68.1707 37.9146C69.3428 39.0867 70.0013 40.6764 70.0013 42.334V54.834C70.0013 56.4916 69.3428 58.0813 68.1707 59.2534C66.9986 60.4255 65.4089 61.084 63.7513 61.084H45.0013L36.668 69.4173Z" fill="#F9ECDF" stroke="#F9ECDF" stroke-linecap="round" stroke-linejoin="round"/>
<path d="M53 48.9167V48.9367" stroke="#5D3136" stroke-width="4" stroke-linecap="round" stroke-linejoin="round"/>
<path d="M44.666 48.9167V48.9367" stroke="#5D3136" stroke-width="4" stroke-linecap="round" stroke-linejoin="round"/>
<path d="M61.334 48.9167V48.9367" stroke="#5D3136" stroke-width="4" stroke-linecap="round" stroke-linejoin="round"/>
</g>
</g>
<defs>
<filter id="filter0_d_2177_4988" x="0" y="0" width="106" height="106" filterUnits="userSpaceOnUse" color-interpolation-filters="sRGB">
<feFlood flood-opacity="0" result="BackgroundImageFix"/>
<feColorMatrix in="SourceAlpha" type="matrix" values="0 0 0 0 0 0 0 0 0 0 0 0 0 0 0 0 0 0 127 0" result="hardAlpha"/>
<feOffset dy="2"/>
<feGaussianBlur stdDeviation="1.5"/>
<feComposite in2="hardAlpha" operator="out"/>
<feColorMatrix type="matrix" values="0 0 0 0 0.364706 0 0 0 0 0.192157 0 0 0 0 0.211765 0 0 0 0.25 0"/>
<feBlend mode="normal" in2="BackgroundImageFix" result="effect1_dropShadow_2177_4988"/>
<feBlend mode="normal" in="SourceGraphic" in2="effect1_dropShadow_2177_4988" result="shape"/>
</filter>
<clipPath id="clip0_2177_4988">
<rect width="50" height="50" fill="white" transform="translate(28 26)"/>
</clipPath>
</defs>
</svg>
