<svg width="88" height="88" viewBox="0 0 88 88" fill="none" xmlns="http://www.w3.org/2000/svg">
<g filter="url(#filter0_d_2011_1629)">
<rect x="3" y="1" width="82" height="82" rx="41" fill="url(#paint0_linear_2011_1629)" shape-rendering="crispEdges"/>
<rect x="3.5" y="1.5" width="81" height="81" rx="40.5" stroke="white" stroke-opacity="0.1" shape-rendering="crispEdges"/>
<g clip-path="url(#clip0_2011_1629)">
<path d="M27.668 60.4173V33.334C27.668 31.6764 28.3264 30.0867 29.4986 28.9146C30.6707 27.7425 32.2604 27.084 33.918 27.084H54.7513C56.4089 27.084 57.9986 27.7425 59.1707 28.9146C60.3428 30.0867 61.0013 31.6764 61.0013 33.334V45.834C61.0013 47.4916 60.3428 49.0813 59.1707 50.2534C57.9986 51.4255 56.4089 52.084 54.7513 52.084H36.0013L27.668 60.4173Z" fill="#F9ECDF" stroke="#F9ECDF" stroke-linecap="round" stroke-linejoin="round"/>
<path d="M44 39.9167V39.9367" stroke="#5D3136" stroke-width="4" stroke-linecap="round" stroke-linejoin="round"/>
<path d="M35.6667 39.9167V39.9367" stroke="#5D3136" stroke-width="4" stroke-linecap="round" stroke-linejoin="round"/>
<path d="M52.3333 39.9167V39.9367" stroke="#5D3136" stroke-width="4" stroke-linecap="round" stroke-linejoin="round"/>
</g>
</g>
<defs>
<filter id="filter0_d_2011_1629" x="0" y="0" width="88" height="88" filterUnits="userSpaceOnUse" color-interpolation-filters="sRGB">
<feFlood flood-opacity="0" result="BackgroundImageFix"/>
<feColorMatrix in="SourceAlpha" type="matrix" values="0 0 0 0 0 0 0 0 0 0 0 0 0 0 0 0 0 0 127 0" result="hardAlpha"/>
<feOffset dy="2"/>
<feGaussianBlur stdDeviation="1.5"/>
<feComposite in2="hardAlpha" operator="out"/>
<feColorMatrix type="matrix" values="0 0 0 0 0.364706 0 0 0 0 0.192157 0 0 0 0 0.211765 0 0 0 0.25 0"/>
<feBlend mode="normal" in2="BackgroundImageFix" result="effect1_dropShadow_2011_1629"/>
<feBlend mode="normal" in="SourceGraphic" in2="effect1_dropShadow_2011_1629" result="shape"/>
</filter>
<linearGradient id="paint0_linear_2011_1629" x1="78.85" y1="66.0875" x2="-46.7125" y2="-37.4375" gradientUnits="userSpaceOnUse">
<stop stop-color="#5D3136"/>
<stop offset="0.5" stop-color="#5D3136" stop-opacity="0.8"/>
<stop offset="1" stop-color="#5D3136" stop-opacity="0.5"/>
</linearGradient>
<clipPath id="clip0_2011_1629">
<rect width="50" height="50" fill="white" transform="translate(19 17)"/>
</clipPath>
</defs>
</svg>
