<svg width="88" height="88" viewBox="0 0 88 88" fill="none" xmlns="http://www.w3.org/2000/svg">
<g filter="url(#filter0_d_2648_116)">
<rect x="3" y="1" width="82" height="82" rx="41" fill="url(#paint0_linear_2648_116)" shape-rendering="crispEdges"/>
<rect x="3.5" y="1.5" width="81" height="81" rx="40.5" stroke="white" stroke-opacity="0.1" shape-rendering="crispEdges"/>
<g clip-path="url(#clip0_2648_116)">
<path d="M28 60V34C28 32.4087 28.6321 30.8826 29.7574 29.7574C30.8826 28.6321 32.4087 28 34 28H54C55.5913 28 57.1174 28.6321 58.2426 29.7574C59.3679 30.8826 60 32.4087 60 34V46C60 47.5913 59.3679 49.1174 58.2426 50.2426C57.1174 51.3679 55.5913 52 54 52H36L28 60Z" stroke="white" stroke-width="2" stroke-linecap="round" stroke-linejoin="round"/>
<path d="M44 40V40.02" stroke="white" stroke-width="2" stroke-linecap="round" stroke-linejoin="round"/>
<path d="M36 40V40.02" stroke="white" stroke-width="2" stroke-linecap="round" stroke-linejoin="round"/>
<path d="M52 40V40.02" stroke="white" stroke-width="2" stroke-linecap="round" stroke-linejoin="round"/>
</g>
</g>
<defs>
<filter id="filter0_d_2648_116" x="0" y="0" width="88" height="88" filterUnits="userSpaceOnUse" color-interpolation-filters="sRGB">
<feFlood flood-opacity="0" result="BackgroundImageFix"/>
<feColorMatrix in="SourceAlpha" type="matrix" values="0 0 0 0 0 0 0 0 0 0 0 0 0 0 0 0 0 0 127 0" result="hardAlpha"/>
<feOffset dy="2"/>
<feGaussianBlur stdDeviation="1.5"/>
<feComposite in2="hardAlpha" operator="out"/>
<feColorMatrix type="matrix" values="0 0 0 0 0.364706 0 0 0 0 0.192157 0 0 0 0 0.211765 0 0 0 0.25 0"/>
<feBlend mode="normal" in2="BackgroundImageFix" result="effect1_dropShadow_2648_116"/>
<feBlend mode="normal" in="SourceGraphic" in2="effect1_dropShadow_2648_116" result="shape"/>
</filter>
<linearGradient id="paint0_linear_2648_116" x1="78.85" y1="66.0875" x2="-46.7125" y2="-37.4375" gradientUnits="userSpaceOnUse">
<stop stop-color="#5D3136"/>
<stop offset="0.5" stop-color="#5D3136" stop-opacity="0.8"/>
<stop offset="1" stop-color="#5D3136" stop-opacity="0.5"/>
</linearGradient>
<clipPath id="clip0_2648_116">
<rect width="48" height="48" fill="white" transform="translate(20 18)"/>
</clipPath>
</defs>
</svg>
