<svg width="32" height="32" viewBox="0 0 32 32" fill="none" xmlns="http://www.w3.org/2000/svg">
<g clip-path="url(#clip0_3077_2699)">
<path d="M10.6641 17.3333V6C10.6641 5.46957 10.8748 4.96086 11.2498 4.58579C11.6249 4.21071 12.1336 4 12.6641 4C13.1945 4 13.7032 4.21071 14.0783 4.58579C14.4533 4.96086 14.6641 5.46957 14.6641 6V16" stroke="#F9ECDF" stroke-linecap="round" stroke-linejoin="round"/>
<path d="M14.6641 15.3346V12.668C14.6641 12.1375 14.8748 11.6288 15.2498 11.2538C15.6249 10.8787 16.1336 10.668 16.6641 10.668C17.1945 10.668 17.7032 10.8787 18.0783 11.2538C18.4533 11.6288 18.6641 12.1375 18.6641 12.668V16.0013" stroke="#F9ECDF" stroke-linecap="round" stroke-linejoin="round"/>
<path d="M18.6641 14C18.6641 13.4696 18.8748 12.9609 19.2498 12.5858C19.6249 12.2107 20.1336 12 20.6641 12C21.1945 12 21.7032 12.2107 22.0783 12.5858C22.4533 12.9609 22.6641 13.4696 22.6641 14V16" stroke="#F9ECDF" stroke-linecap="round" stroke-linejoin="round"/>
<path d="M22.6669 15.332C22.6669 14.8016 22.8776 14.2929 23.2527 13.9178C23.6278 13.5427 24.1365 13.332 24.6669 13.332C25.1973 13.332 25.706 13.5427 26.0811 13.9178C26.4562 14.2929 26.6669 14.8016 26.6669 15.332V21.332C26.6669 23.4538 25.8241 25.4886 24.3238 26.9889C22.8235 28.4892 20.7886 29.332 18.6669 29.332H16.0002H16.2776C14.9527 29.3323 13.6485 29.0034 12.4821 28.3751C11.3157 27.7467 10.3236 26.8385 9.59491 25.732L9.33358 25.332C8.91758 24.6934 7.45758 22.148 4.95224 17.6947C4.69684 17.2407 4.62862 16.7051 4.76209 16.2016C4.89555 15.6981 5.22018 15.2665 5.66691 14.9987C6.14275 14.7132 6.70034 14.5949 7.25112 14.6625C7.80191 14.7301 8.3143 14.9799 8.70691 15.372L10.6669 17.332" stroke="#F9ECDF" stroke-linecap="round" stroke-linejoin="round"/>
<path d="M6.66927 4.0013L5.33594 2.66797" stroke="#F9ECDF" stroke-linecap="round" stroke-linejoin="round"/>
<path d="M5.33333 9.33203H4" stroke="#F9ECDF" stroke-linecap="round" stroke-linejoin="round"/>
<path d="M18.6641 4.0013L19.9974 2.66797" stroke="#F9ECDF" stroke-linecap="round" stroke-linejoin="round"/>
<path d="M20 8H21.3333" stroke="#F9ECDF" stroke-linecap="round" stroke-linejoin="round"/>
</g>
<defs>
<clipPath id="clip0_3077_2699">
<rect width="32" height="32" fill="white"/>
</clipPath>
</defs>
</svg>
