<svg width="168" height="49" viewBox="0 0 168 49" fill="none" xmlns="http://www.w3.org/2000/svg">
<path d="M35.8405 4.02607C43.6414 2.88672 49.7396 3.44544 54.482 3.91652C62.4847 4.7053 69.1315 6.44172 73.5775 7.60298C76.9261 8.4794 78.5406 9.02169 83.9451 10.424C88.6748 11.651 92.5847 12.5548 95.1766 13.1354L115.161 17.145C120.749 18.2625 132.472 18.9308 138.488 17.8352C134.95 17.9284 131.205 17.9119 127.269 17.7421C125.554 17.6654 123.877 17.5668 122.243 17.4463C120.944 17.3696 119.506 17.2546 117.974 16.9862C116.58 16.7452 115.231 16.4494 113.957 16.1865C126.714 16.7068 137.505 18.8541 148.578 13.8913C139.207 15.814 133.733 17.1998 124.034 16.1043L115.704 15.1621C119.04 15.1293 121.726 14.954 123.441 14.817C128.026 14.4446 141.194 13.0697 156.341 6.7649C158.227 5.9816 159.709 5.29689 160.535 4.91345C159.886 5.85013 159.167 6.90732 158.177 7.92068C157.3 8.81354 156.36 9.66805 155.414 10.6979C159.98 8.21648 163.707 4.76008 164.975 0C155.332 8.76424 137.549 12.511 124.381 13.5408C123.151 13.6393 117.318 14.1323 109.517 13.6722C93.6063 12.741 79.4865 8.48488 63.5505 3.68646C58.4991 2.14724 51.8901 0.0438212 42.9351 0.317704C38.2054 0.460123 34.5414 1.23247 32.3658 1.69807C28.2478 2.57997 20.245 4.37117 12.3243 9.84334C10.0856 11.388 7.02072 13.8037 4 17.3203C7.27297 14.9211 12.0342 11.8755 18.309 9.18054C21.7838 7.69062 27.636 5.22568 35.8405 4.0206V4.02607Z" fill="#5D3136"/>
<path d="M9.79563 45.72C8.32896 45.72 6.83563 45.5333 5.31563 45.16C3.79563 44.8133 2.52896 44.3467 1.51563 43.76L1.71563 38.32H2.11563L3.35563 40.92C3.72896 41.6667 4.12896 42.3333 4.55563 42.92C4.9823 43.48 5.56896 43.92 6.31563 44.24C6.84896 44.5067 7.35563 44.6933 7.83563 44.8C8.3423 44.88 8.9023 44.92 9.51563 44.92C11.1423 44.92 12.4223 44.48 13.3556 43.6C14.3156 42.72 14.7956 41.5867 14.7956 40.2C14.7956 38.8933 14.4756 37.88 13.8356 37.16C13.1956 36.4133 12.169 35.6933 10.7556 35L9.11563 34.28C6.82229 33.2667 5.02229 32.1067 3.71563 30.8C2.43563 29.4667 1.79563 27.7067 1.79563 25.52C1.79563 23.9467 2.19563 22.5867 2.99563 21.44C3.82229 20.2933 4.95563 19.4133 6.39563 18.8C7.8623 18.1867 9.56896 17.88 11.5156 17.88C12.929 17.88 14.2623 18.0667 15.5156 18.44C16.7956 18.8133 17.9023 19.32 18.8356 19.96L18.5956 24.76H18.1956L16.5556 21.76C16.1023 20.8267 15.649 20.1733 15.1956 19.8C14.7423 19.4 14.2223 19.12 13.6356 18.96C13.289 18.8533 12.969 18.7867 12.6756 18.76C12.3823 18.7067 12.009 18.68 11.5556 18.68C10.1956 18.68 9.04896 19.08 8.11563 19.88C7.1823 20.6533 6.71563 21.7067 6.71563 23.04C6.71563 24.4 7.07563 25.4933 7.79563 26.32C8.51563 27.12 9.56896 27.84 10.9556 28.48L12.7956 29.28C15.3556 30.4 17.1956 31.6 18.3156 32.88C19.4356 34.1333 19.9956 35.76 19.9956 37.76C19.9956 40.1067 19.1023 42.0267 17.3156 43.52C15.5556 44.9867 13.049 45.72 9.79563 45.72ZM21.7988 45V44.6L22.5988 44.28C23.1321 44.0933 23.4788 43.84 23.6388 43.52C23.8254 43.2 23.9188 42.7733 23.9188 42.24V21.36C23.9188 20.8267 23.8388 20.4 23.6788 20.08C23.5188 19.76 23.1588 19.5067 22.5988 19.32L21.7988 19V18.6H32.0788V19L31.2788 19.32C30.7454 19.5067 30.3854 19.76 30.1988 20.08C30.0388 20.4 29.9588 20.8267 29.9588 21.36V42.24C29.9588 42.7733 30.0388 43.2 30.1988 43.52C30.3854 43.8133 30.7454 44.0667 31.2788 44.28L32.0788 44.6V45H21.7988ZM33.65 45V44.6L34.45 44.32C35.3567 44.0267 35.81 43.2667 35.81 42.04V21.56C35.81 21.0267 35.7433 20.6 35.61 20.28C35.5033 19.96 35.1967 19.6933 34.69 19.48L33.65 19V18.6H41.37L48.77 37.96L55.73 18.6H63.61V19L62.97 19.24C62.4633 19.4267 62.1167 19.6933 61.93 20.04C61.7433 20.36 61.65 20.7867 61.65 21.32V42.24C61.65 42.7733 61.7167 43.1867 61.85 43.48C61.9833 43.7733 62.3033 44.0267 62.81 44.24L63.61 44.6V45H53.65V44.6L54.49 44.24C54.9967 44.0267 55.3167 43.7733 55.45 43.48C55.5833 43.1867 55.65 42.7733 55.65 42.24V33.24L55.73 21.8L47.37 45H45.37L36.65 22.08L36.77 32.04V42.12C36.77 42.7067 36.85 43.1867 37.01 43.56C37.1967 43.9067 37.5433 44.16 38.05 44.32L38.93 44.6V45H33.65ZM65.1906 45V44.6L65.9906 44.32C66.8973 44.0267 67.3506 43.2667 67.3506 42.04V21.56C67.3506 21.0267 67.284 20.6 67.1506 20.28C67.044 19.96 66.7373 19.6933 66.2306 19.48L65.1906 19V18.6H72.9106L80.3106 37.96L87.2706 18.6H95.1506V19L94.5106 19.24C94.004 19.4267 93.6573 19.6933 93.4706 20.04C93.284 20.36 93.1906 20.7867 93.1906 21.32V42.24C93.1906 42.7733 93.2573 43.1867 93.3906 43.48C93.524 43.7733 93.844 44.0267 94.3506 44.24L95.1506 44.6V45H85.1906V44.6L86.0306 44.24C86.5373 44.0267 86.8573 43.7733 86.9906 43.48C87.124 43.1867 87.1906 42.7733 87.1906 42.24V33.24L87.2706 21.8L78.9106 45H76.9106L68.1906 22.08L68.3106 32.04V42.12C68.3106 42.7067 68.3906 43.1867 68.5506 43.56C68.7373 43.9067 69.084 44.16 69.5906 44.32L70.4706 44.6V45H65.1906ZM108.667 45.72C107.041 45.72 105.467 45.4267 103.947 44.84C102.454 44.2533 101.107 43.3867 99.9072 42.24C98.7339 41.0667 97.8005 39.6133 97.1072 37.88C96.4139 36.1467 96.0672 34.12 96.0672 31.8C96.0672 29.5067 96.4139 27.4933 97.1072 25.76C97.8005 24.0267 98.7472 22.5867 99.9472 21.44C101.147 20.2667 102.494 19.3867 103.987 18.8C105.507 18.1867 107.067 17.88 108.667 17.88C110.294 17.88 111.854 18.1733 113.347 18.76C114.867 19.32 116.214 20.1867 117.387 21.36C118.587 22.5067 119.534 23.96 120.227 25.72C120.921 27.4533 121.267 29.48 121.267 31.8C121.267 34.0667 120.921 36.08 120.227 37.84C119.534 39.5733 118.587 41.0267 117.387 42.2C116.214 43.3467 114.867 44.2267 113.347 44.84C111.854 45.4267 110.294 45.72 108.667 45.72ZM108.667 44.88C110.134 44.88 111.321 44.4933 112.227 43.72C113.134 42.92 113.787 41.5733 114.187 39.68C114.614 37.76 114.827 35.1333 114.827 31.8C114.827 28.44 114.614 25.8133 114.187 23.92C113.787 22 113.134 20.6533 112.227 19.88C111.321 19.08 110.134 18.68 108.667 18.68C107.227 18.68 106.054 19.08 105.147 19.88C104.241 20.6533 103.574 22 103.147 23.92C102.747 25.8133 102.547 28.44 102.547 31.8C102.547 35.1333 102.747 37.76 103.147 39.68C103.574 41.5733 104.241 42.92 105.147 43.72C106.054 44.4933 107.227 44.88 108.667 44.88ZM122.583 45V44.6L123.903 44.2C124.383 44.0667 124.729 43.8133 124.943 43.44C125.156 43.04 125.263 42.5733 125.263 42.04V22.8C124.969 22.16 124.729 21.68 124.543 21.36C124.383 21.04 124.196 20.7733 123.983 20.56C123.769 20.32 123.476 20.0267 123.103 19.68L122.423 19V18.6H129.503L142.783 36.72V21.64C142.783 21.1067 142.689 20.6267 142.503 20.2C142.343 19.7733 141.996 19.4933 141.463 19.36L140.143 19V18.6H145.863V19L144.783 19.36C144.303 19.52 144.009 19.8 143.903 20.2C143.796 20.6 143.743 21.0667 143.743 21.6V45.12H141.503L126.223 24.12V42.04C126.223 42.5733 126.303 43.0267 126.463 43.4C126.623 43.7733 126.956 44.04 127.463 44.2L128.663 44.6V45H122.583ZM156.305 45.72C154.838 45.72 153.345 45.5333 151.825 45.16C150.305 44.8133 149.038 44.3467 148.025 43.76L148.225 38.32H148.625L149.865 40.92C150.238 41.6667 150.638 42.3333 151.065 42.92C151.492 43.48 152.078 43.92 152.825 44.24C153.358 44.5067 153.865 44.6933 154.345 44.8C154.852 44.88 155.412 44.92 156.025 44.92C157.652 44.92 158.932 44.48 159.865 43.6C160.825 42.72 161.305 41.5867 161.305 40.2C161.305 38.8933 160.985 37.88 160.345 37.16C159.705 36.4133 158.678 35.6933 157.265 35L155.625 34.28C153.332 33.2667 151.532 32.1067 150.225 30.8C148.945 29.4667 148.305 27.7067 148.305 25.52C148.305 23.9467 148.705 22.5867 149.505 21.44C150.332 20.2933 151.465 19.4133 152.905 18.8C154.372 18.1867 156.078 17.88 158.025 17.88C159.438 17.88 160.772 18.0667 162.025 18.44C163.305 18.8133 164.412 19.32 165.345 19.96L165.105 24.76H164.705L163.065 21.76C162.612 20.8267 162.158 20.1733 161.705 19.8C161.252 19.4 160.732 19.12 160.145 18.96C159.798 18.8533 159.478 18.7867 159.185 18.76C158.892 18.7067 158.518 18.68 158.065 18.68C156.705 18.68 155.558 19.08 154.625 19.88C153.692 20.6533 153.225 21.7067 153.225 23.04C153.225 24.4 153.585 25.4933 154.305 26.32C155.025 27.12 156.078 27.84 157.465 28.48L159.305 29.28C161.865 30.4 163.705 31.6 164.825 32.88C165.945 34.1333 166.505 35.76 166.505 37.76C166.505 40.1067 165.612 42.0267 163.825 43.52C162.065 44.9867 159.558 45.72 156.305 45.72Z" fill="#5D3136"/>
</svg>
