<?xml version="1.0" encoding="UTF-8"?>
<svg id="_레이어_1" data-name="레이어 1" xmlns="http://www.w3.org/2000/svg" width="353.94" height="111.5" viewBox="0 0 353.94 111.5">
  <path d="M229.58,82.25c-2.74,2.08-6.49,4.88-12.09,6.65-4.25,1.34-7.98,1.6-10.51,1.59H54.86c-19.52,0-35.35-15.83-35.35-35.35h0c0-19.52,15.83-35.35,35.35-35.35h152.12c3.14-.18,7.38.04,11.98,1.7,4.29,1.54,7.19,3.72,8.83,4.98,2.66,2.03,2.91,2.78,7.1,6.88,4.58,4.48,6.88,6.72,9.73,8.44,2.26,1.37,6.16,3.66,11.7,4.09,5.72.44,10.06-1.36,12.11-2.24.93-.4,5.66-2.49,10.01-7.05,2.38-2.49,3.13-4.14,6.63-7.41,1.17-1.09,2.48-2.32,4.4-3.66,6.67-4.66,13.5-5.74,17.03-6,.71-.05,1.27-.08,1.64-.09,2.15-.08,8.57-.11,15.85,3.18,3.36,1.51,11.96,6.01,17.18,16.11,1.08,2.09,3.95,8.14,3.93,16.44,0,4.33-.81,12.73-6.61,20.79-1.1,1.53-8.24,11.12-21.47,13.92-.93.2-1.67.33-2.12.4-1.95.3-12.22,1.73-21.89-3.62-5.79-3.2-10.46-8.33-13.53-11.69-.79-.86-3.02-3.36-6.58-5.83-1.39-.97-3.12-2.15-5.68-3.13-1.23-.47-4.25-1.5-8.27-1.54-1.62-.02-4.53.11-7.9,1.22-3.02,1-5.36,2.43-8.39,4.74-7.28,5.52-7.18,7.37-13.08,11.85Z" fill="none" stroke="#000" stroke-miterlimit="10" stroke-width="1.5"/>
  <circle cx="309.45" cy="55.02" r="27.81" fill="none" stroke="#000" stroke-miterlimit="10" stroke-width="1.5"/>
</svg>