<svg width="328" height="73" viewBox="0 0 328 73" fill="none" xmlns="http://www.w3.org/2000/svg">
<g clip-path="url(#clip0_2335_2237)">
<path d="M305.877 69.4646C296.287 74.0146 282.977 73.7346 273.517 68.5946C263.387 63.0946 262.537 57.5946 253.317 51.1046C244.747 45.0746 233.567 45.2046 225.157 51.3746C221.087 54.3646 217.707 57.6246 214.137 61.2946C207.547 68.0746 198.617 72.4846 188.847 72.4846L36.3969 72.5146C20.1769 72.5146 6.05689 61.9146 1.47689 46.3846C-3.03311 31.1146 3.02689 14.5546 16.3669 5.68456C21.0469 2.56456 26.6769 0.144564 32.5869 0.154564L191.477 0.224564C200.257 0.224564 208.337 5.55456 214.037 11.4246C217.657 15.1546 220.677 18.4146 224.727 21.3746C232.697 27.1946 242.747 27.9246 251.387 23.0546C255.817 20.5546 259.287 16.9946 262.497 13.0746C270.177 3.67456 281.367 -0.825436 293.547 0.124564C308.007 1.24456 320.287 10.9546 325.037 24.6646C331.167 42.3346 322.707 61.4946 305.877 69.4846V69.4646ZM310.447 7.95456C296.217 -2.13544 276.267 -0.0354366 264.847 12.9746C262.717 15.4046 260.947 17.6146 258.617 19.8146C248.257 29.5346 234.327 30.8846 222.917 22.1646C219.057 19.2146 216.047 16.0246 212.667 12.4846C206.977 6.52456 199.477 1.84456 190.817 1.82456L147.977 1.68456L79.4669 1.66456L33.7669 1.69456C29.3469 1.69456 24.9769 2.97456 21.0969 4.92456C8.38689 11.3046 0.646894 24.6646 1.83689 39.1246C3.21689 55.9146 17.4869 70.6946 34.8569 70.7046L189.577 70.8046C198.497 70.8046 206.677 66.2046 212.737 60.3446C216.047 57.1446 218.817 54.3846 222.247 51.4546C231.027 43.9646 243.487 42.8346 253.377 49.1046C257.607 51.7846 260.957 55.3146 264.307 59.0846C270.537 66.0946 278.837 70.4446 288.317 71.0746C308.137 72.3846 325.317 56.3646 325.327 36.3346C325.327 25.0546 319.657 14.4846 310.447 7.95456Z" fill="#5D3136"/>
<path d="M319.483 42.9814C316.323 56.8987 303.363 66.9468 288.553 65.917C275.953 65.0371 265.203 56.2388 261.893 44.1211C258.613 32.1134 263.223 19.7258 272.953 12.5272C282.683 5.32856 296.553 4.83866 306.893 11.7173C317.233 18.596 322.283 30.6737 319.483 42.9914V42.9814ZM316.743 47.6505C323.043 33.2432 316.323 16.7864 302.153 10.3476C291.903 5.69849 280.143 7.51814 271.653 15.0267C263.873 21.9154 260.203 32.4334 262.653 42.6914C265.393 54.1792 274.993 62.9076 286.633 64.6072C299.613 66.5069 311.783 58.9983 316.743 47.6505Z" fill="#5D3136"/>
<ellipse cx="290.5" cy="36.4944" rx="29.5" ry="29.4944" fill="#5D3136"/>
<path d="M281.375 26.9961H301.743V47.3606" stroke="#F9ECDF" stroke-width="3"/>
<path d="M301.368 26.9961L281 47.3606" stroke="#F9ECDF" stroke-width="3"/>
<path d="M32.0406 30.3242C31.9573 29.6367 31.7177 29.043 31.3219 28.543C30.926 28.043 30.3896 27.668 29.7125 27.418C29.0458 27.168 28.275 27.043 27.4 27.043C26.4938 27.043 25.6969 27.1836 25.0094 27.4648C24.3219 27.7461 23.7906 28.1419 23.4156 28.6523C23.0406 29.1523 22.8531 29.7253 22.8531 30.3711C22.8531 31.319 23.2438 32.0482 24.025 32.5586C24.8063 33.069 25.7906 33.4753 26.9781 33.7773L29.15 34.3555C31.0354 34.8138 32.5927 35.5326 33.8219 36.5117C35.0615 37.4909 35.6813 38.9023 35.6813 40.7461C35.6813 42.0169 35.3479 43.1576 34.6813 44.168C34.025 45.168 33.0615 45.9544 31.7906 46.5273C30.5302 47.0898 29.0302 47.3711 27.2906 47.3711C25.6135 47.3711 24.15 47.1055 22.9 46.5742C21.65 46.0326 20.676 45.2669 19.9781 44.2773C19.2802 43.2773 18.8948 42.0951 18.8219 40.7305H22.2594C22.3323 41.5117 22.5979 42.1732 23.0563 42.7148C23.5146 43.2565 24.1083 43.6628 24.8375 43.9336C25.5667 44.2044 26.3792 44.3398 27.275 44.3398C28.2333 44.3398 29.0927 44.1888 29.8531 43.8867C30.6135 43.5846 31.2073 43.1576 31.6344 42.6055C32.0615 42.043 32.275 41.4023 32.275 40.6836C32.275 40.0586 32.0979 39.5326 31.7438 39.1055C31.3896 38.6784 30.9052 38.3294 30.2906 38.0586C29.6865 37.7773 28.926 37.5117 28.0094 37.2617L25.3219 36.5586C23.426 36.0378 21.9729 35.293 20.9625 34.3242C19.9521 33.3451 19.4469 32.0898 19.4469 30.5586C19.4469 29.2773 19.7958 28.1471 20.4938 27.168C21.2021 26.1888 22.1604 25.4284 23.3688 24.8867C24.5875 24.3346 25.9573 24.0586 27.4781 24.0586C28.9885 24.0586 30.3323 24.3294 31.5094 24.8711C32.6969 25.4023 33.6292 26.1419 34.3063 27.0898C34.9833 28.0378 35.3375 29.1159 35.3688 30.3242H32.0406ZM46.6625 47.3398C45.0271 47.3398 43.5948 46.9805 42.3656 46.2617C41.1469 45.543 40.2094 44.5273 39.5531 43.2148C38.8969 41.9023 38.5688 40.3763 38.5688 38.6367C38.5688 36.8971 38.8969 35.3607 39.5531 34.0273C40.2094 32.6836 41.1313 31.6471 42.3188 30.918C43.5063 30.1784 44.876 29.8086 46.4281 29.8086C47.8031 29.8086 49.0583 30.1055 50.1938 30.6992C51.3292 31.2826 52.2406 32.2148 52.9281 33.4961C53.6156 34.7669 53.9594 36.3763 53.9594 38.3242V39.4961H40.4438V37.0117H50.6938C50.6938 36.1471 50.5167 35.3815 50.1625 34.7148C49.8188 34.0378 49.324 33.5065 48.6781 33.1211C48.0323 32.7357 47.2927 32.543 46.4594 32.543C45.5531 32.543 44.7563 32.7617 44.0688 33.1992C43.3813 33.6367 42.8448 34.2253 42.4594 34.9648C42.074 35.7044 41.8813 36.4961 41.8813 37.3398V39.2773C41.8813 40.3919 42.0792 41.3503 42.475 42.1523C42.8813 42.9544 43.4438 43.5638 44.1625 43.9805C44.8917 44.3971 45.7302 44.6055 46.6781 44.6055C47.2823 44.6055 47.8292 44.5221 48.3188 44.3555C48.8083 44.1784 49.225 43.9596 49.5688 43.6992C49.9125 43.4284 50.1781 43.1107 50.3656 42.7461H53.7563C53.5063 43.6628 53.0583 44.4648 52.4125 45.1523C51.7667 45.8398 50.949 46.3763 49.9594 46.7617C48.9802 47.1471 47.8813 47.3398 46.6625 47.3398ZM60.7844 46.9961H57.4563V30.0273H60.6438V32.793H60.8625C61.2792 31.8451 61.9042 31.1107 62.7375 30.5898C63.5813 30.069 64.6281 29.8086 65.8781 29.8086C67.0448 29.8086 68.0552 30.0534 68.9094 30.543C69.774 31.0221 70.4406 31.7409 70.9094 32.6992C71.3885 33.6576 71.6281 34.8242 71.6281 36.1992V46.9961H68.3V36.5898C68.3 35.7773 68.1594 35.0794 67.8781 34.4961C67.5969 33.9128 67.1906 33.4701 66.6594 33.168C66.1281 32.8555 65.4823 32.6992 64.7219 32.6992C63.951 32.6992 63.2688 32.8659 62.675 33.1992C62.0813 33.5221 61.6177 34.0065 61.2844 34.6523C60.951 35.2878 60.7844 36.0482 60.7844 36.9336V46.9961ZM82.25 47.3086C80.8854 47.3086 79.6615 46.9596 78.5781 46.2617C77.5052 45.5534 76.6615 44.5378 76.0469 43.2148C75.4427 41.8815 75.1406 40.3242 75.1406 38.543C75.1406 36.7409 75.4479 35.1836 76.0625 33.8711C76.6771 32.5482 77.5208 31.543 78.5938 30.8555C79.6771 30.1576 80.9062 29.8086 82.2812 29.8086C83.2396 29.8086 84.0469 29.9648 84.7031 30.2773C85.3594 30.5898 85.8542 30.944 86.1875 31.3398C86.5208 31.7357 86.8438 32.2096 87.1562 32.7617H87.3281V24.3711H90.6719V46.9961H87.4062V44.3711H87.1562C86.8229 44.9128 86.4896 45.3815 86.1562 45.7773C85.8229 46.1628 85.3281 46.5169 84.6719 46.8398C84.0156 47.1523 83.2083 47.3086 82.25 47.3086ZM82.9844 44.4805C83.9219 44.4805 84.724 44.2305 85.3906 43.7305C86.0573 43.2305 86.5625 42.5326 86.9062 41.6367C87.25 40.7305 87.4219 39.6836 87.4219 38.4961C87.4219 37.3086 87.2552 36.2773 86.9219 35.4023C86.5885 34.5273 86.0833 33.8503 85.4062 33.3711C84.7396 32.8919 83.9323 32.6523 82.9844 32.6523C82.0365 32.6523 81.2292 32.9023 80.5625 33.4023C79.8958 33.8919 79.3906 34.5794 79.0469 35.4648C78.7031 36.3503 78.5312 37.3607 78.5312 38.4961C78.5312 39.6523 78.7031 40.6836 79.0469 41.5898C79.3906 42.4857 79.8958 43.194 80.5625 43.7148C81.2292 44.2253 82.0365 44.4805 82.9844 44.4805ZM106.947 46.9961H103.509V24.3711H106.947V46.9961ZM114.834 46.9961H111.506V30.0273H114.694V32.793H114.912C115.329 31.8451 115.954 31.1107 116.787 30.5898C117.631 30.069 118.678 29.8086 119.928 29.8086C121.095 29.8086 122.105 30.0534 122.959 30.543C123.824 31.0221 124.491 31.7409 124.959 32.6992C125.439 33.6576 125.678 34.8242 125.678 36.1992V46.9961H122.35V36.5898C122.35 35.7773 122.209 35.0794 121.928 34.4961C121.647 33.9128 121.241 33.4701 120.709 33.168C120.178 32.8555 119.532 32.6992 118.772 32.6992C118.001 32.6992 117.319 32.8659 116.725 33.1992C116.131 33.5221 115.668 34.0065 115.334 34.6523C115.001 35.2878 114.834 36.0482 114.834 36.9336V46.9961ZM141.378 44.3711H141.206C140.873 44.9128 140.54 45.3815 140.206 45.7773C139.873 46.1628 139.378 46.5169 138.722 46.8398C138.066 47.1523 137.258 47.3086 136.3 47.3086C134.935 47.3086 133.711 46.9596 132.628 46.2617C131.555 45.5534 130.711 44.5378 130.097 43.2148C129.493 41.8815 129.191 40.3242 129.191 38.543C129.191 36.7409 129.498 35.1836 130.113 33.8711C130.727 32.5482 131.571 31.543 132.644 30.8555C133.727 30.1576 134.956 29.8086 136.331 29.8086C137.29 29.8086 138.097 29.9648 138.753 30.2773C139.409 30.5898 139.904 30.944 140.238 31.3398C140.571 31.7357 140.894 32.2096 141.206 32.7617H141.456V30.0273H144.722V53.3711H141.378V44.3711ZM137.034 44.4805C137.972 44.4805 138.774 44.2305 139.441 43.7305C140.107 43.2305 140.613 42.5326 140.956 41.6367C141.3 40.7305 141.472 39.6836 141.472 38.4961C141.472 37.3086 141.305 36.2773 140.972 35.4023C140.639 34.5273 140.133 33.8503 139.456 33.3711C138.79 32.8919 137.982 32.6523 137.034 32.6523C136.086 32.6523 135.279 32.9023 134.613 33.4023C133.946 33.8919 133.441 34.5794 133.097 35.4648C132.753 36.3503 132.581 37.3607 132.581 38.4961C132.581 39.6523 132.753 40.6836 133.097 41.5898C133.441 42.4857 133.946 43.194 134.613 43.7148C135.279 44.2253 136.086 44.4805 137.034 44.4805ZM159.766 30.0273H163.078V46.9961H159.828V44.0586H159.641C159.214 45.0065 158.568 45.7721 157.703 46.3555C156.849 46.9284 155.807 47.2148 154.578 47.2148C153.474 47.2148 152.505 46.9701 151.672 46.4805C150.839 45.9909 150.182 45.2669 149.703 44.3086C149.234 43.3398 149 42.1732 149 40.8086V30.0273H152.328V40.418C152.328 41.168 152.469 41.8294 152.75 42.4023C153.042 42.9648 153.448 43.4023 153.969 43.7148C154.5 44.0273 155.099 44.1836 155.766 44.1836C156.422 44.1836 157.057 44.0221 157.672 43.6992C158.286 43.3763 158.786 42.8919 159.172 42.2461C159.568 41.6003 159.766 40.8294 159.766 39.9336V30.0273ZM167.356 30.0273H170.684V46.9961H167.356V30.0273ZM169.013 27.4023C168.638 27.4023 168.289 27.319 167.966 27.1523C167.643 26.9753 167.388 26.7357 167.2 26.4336C167.013 26.1211 166.919 25.7878 166.919 25.4336C166.919 25.069 167.013 24.7409 167.2 24.4492C167.388 24.1471 167.643 23.9076 167.966 23.7305C168.289 23.5534 168.638 23.4648 169.013 23.4648C169.408 23.4648 169.768 23.5534 170.091 23.7305C170.414 23.9076 170.664 24.1471 170.841 24.4492C171.028 24.7409 171.122 25.069 171.122 25.4336C171.122 25.7878 171.028 26.1211 170.841 26.4336C170.664 26.7357 170.414 26.9753 170.091 27.1523C169.768 27.319 169.408 27.4023 169.013 27.4023ZM174.962 30.0273H178.181V32.7461H178.369C178.671 31.8086 179.212 31.0794 179.994 30.5586C180.775 30.0273 181.655 29.7617 182.634 29.7617C183.155 29.7617 183.634 29.793 184.072 29.8555V33.043C183.936 32.9909 183.692 32.944 183.337 32.9023C182.983 32.8503 182.645 32.8242 182.322 32.8242C181.572 32.8242 180.89 32.9909 180.275 33.3242C179.66 33.6471 179.176 34.1003 178.822 34.6836C178.468 35.2669 178.291 35.9232 178.291 36.6523V46.9961H174.962V30.0273ZM189.366 53.3711C188.699 53.3711 188.105 53.3503 187.584 53.3086V50.4961L188.178 50.5273C188.397 50.5482 188.699 50.5586 189.084 50.5586C189.511 50.5586 189.866 50.5169 190.147 50.4336C190.439 50.3503 190.72 50.1419 190.991 49.8086C191.272 49.4857 191.527 48.9909 191.756 48.3242L192.194 47.2461L185.959 30.0273H189.553L193.819 43.168H194.006L198.288 30.0273H201.881L194.881 49.2461C194.371 50.6003 193.668 51.6263 192.772 52.3242C191.876 53.0221 190.741 53.3711 189.366 53.3711Z" fill="#5D3136"/>
</g>
<defs>
<clipPath id="clip0_2335_2237">
<rect width="327.03" height="72.6761" fill="white"/>
</clipPath>
</defs>
</svg>
