<svg width="328" height="73" viewBox="0 0 328 73" fill="none" xmlns="http://www.w3.org/2000/svg">
<g clip-path="url(#clip0_2335_2197)">
<path d="M305.877 69.4646C296.287 74.0146 282.977 73.7346 273.517 68.5946C263.387 63.0946 262.537 57.5946 253.317 51.1046C244.747 45.0746 233.567 45.2046 225.157 51.3746C221.087 54.3646 217.707 57.6246 214.137 61.2946C207.547 68.0746 198.617 72.4846 188.847 72.4846L36.3969 72.5146C20.1769 72.5146 6.05689 61.9146 1.47689 46.3846C-3.03311 31.1146 3.02689 14.5546 16.3669 5.68456C21.0469 2.56456 26.6769 0.144564 32.5869 0.154564L191.477 0.224564C200.257 0.224564 208.337 5.55456 214.037 11.4246C217.657 15.1546 220.677 18.4146 224.727 21.3746C232.697 27.1946 242.747 27.9246 251.387 23.0546C255.817 20.5546 259.287 16.9946 262.497 13.0746C270.177 3.67456 281.367 -0.825436 293.547 0.124564C308.007 1.24456 320.287 10.9546 325.037 24.6646C331.167 42.3346 322.707 61.4946 305.877 69.4846V69.4646ZM310.447 7.95456C296.217 -2.13544 276.267 -0.0354366 264.847 12.9746C262.717 15.4046 260.947 17.6146 258.617 19.8146C248.257 29.5346 234.327 30.8846 222.917 22.1646C219.057 19.2146 216.047 16.0246 212.667 12.4846C206.977 6.52456 199.477 1.84456 190.817 1.82456L147.977 1.68456L79.4669 1.66456L33.7669 1.69456C29.3469 1.69456 24.9769 2.97456 21.0969 4.92456C8.38689 11.3046 0.646894 24.6646 1.83689 39.1246C3.21689 55.9146 17.4869 70.6946 34.8569 70.7046L189.577 70.8046C198.497 70.8046 206.677 66.2046 212.737 60.3446C216.047 57.1446 218.817 54.3846 222.247 51.4546C231.027 43.9646 243.487 42.8346 253.377 49.1046C257.607 51.7846 260.957 55.3146 264.307 59.0846C270.537 66.0946 278.837 70.4446 288.317 71.0746C308.137 72.3846 325.317 56.3646 325.327 36.3346C325.327 25.0546 319.657 14.4846 310.447 7.95456Z" fill="#5D3136"/>
<path d="M319.483 42.9814C316.323 56.8987 303.363 66.9468 288.553 65.917C275.953 65.0371 265.203 56.2388 261.893 44.1211C258.613 32.1134 263.223 19.7258 272.953 12.5272C282.683 5.32856 296.553 4.83866 306.893 11.7173C317.233 18.596 322.283 30.6737 319.483 42.9914V42.9814ZM316.743 47.6505C323.043 33.2432 316.323 16.7864 302.153 10.3476C291.903 5.69849 280.143 7.51814 271.653 15.0267C263.873 21.9154 260.203 32.4334 262.653 42.6914C265.393 54.1792 274.993 62.9076 286.633 64.6072C299.613 66.5069 311.783 58.9983 316.743 47.6505Z" fill="#5D3136"/>
<ellipse cx="290.5" cy="36.4944" rx="29.5" ry="29.4944" fill="#5D3136"/>
<path d="M281.375 26.9961H301.743V47.3606" stroke="#F9ECDF" stroke-width="3"/>
<path d="M301.368 26.9961L281 47.3606" stroke="#F9ECDF" stroke-width="3"/>
<path d="M63.8937 42.7617H64.1437L70.4406 24.3711H74.1594L66.0187 46.9961H62.0344L53.9094 24.3711H57.6281L63.8937 42.7617ZM77 30.0273H80.3281V46.9961H77V30.0273ZM78.6562 27.4023C78.2812 27.4023 77.9323 27.319 77.6094 27.1523C77.2865 26.9753 77.0312 26.7357 76.8438 26.4336C76.6562 26.1211 76.5625 25.7878 76.5625 25.4336C76.5625 25.069 76.6562 24.7409 76.8438 24.4492C77.0312 24.1471 77.2865 23.9076 77.6094 23.7305C77.9323 23.5534 78.2812 23.4648 78.6562 23.4648C79.0521 23.4648 79.4115 23.5534 79.7344 23.7305C80.0573 23.9076 80.3073 24.1471 80.4844 24.4492C80.6719 24.7409 80.7656 25.069 80.7656 25.4336C80.7656 25.7878 80.6719 26.1211 80.4844 26.4336C80.3073 26.7357 80.0573 26.9753 79.7344 27.1523C79.4115 27.319 79.0521 27.4023 78.6562 27.4023ZM91.9187 47.3398C90.2833 47.3398 88.851 46.9805 87.6219 46.2617C86.4031 45.543 85.4656 44.5273 84.8094 43.2148C84.1531 41.9023 83.825 40.3763 83.825 38.6367C83.825 36.8971 84.1531 35.3607 84.8094 34.0273C85.4656 32.6836 86.3875 31.6471 87.575 30.918C88.7625 30.1784 90.1323 29.8086 91.6844 29.8086C93.0594 29.8086 94.3146 30.1055 95.45 30.6992C96.5854 31.2826 97.4969 32.2148 98.1844 33.4961C98.8719 34.7669 99.2156 36.3763 99.2156 38.3242V39.4961H85.7V37.0117H95.95C95.95 36.1471 95.7729 35.3815 95.4187 34.7148C95.075 34.0378 94.5802 33.5065 93.9344 33.1211C93.2885 32.7357 92.549 32.543 91.7156 32.543C90.8094 32.543 90.0125 32.7617 89.325 33.1992C88.6375 33.6367 88.101 34.2253 87.7156 34.9648C87.3302 35.7044 87.1375 36.4961 87.1375 37.3398V39.2773C87.1375 40.3919 87.3354 41.3503 87.7312 42.1523C88.1375 42.9544 88.7 43.5638 89.4187 43.9805C90.1479 44.3971 90.9865 44.6055 91.9344 44.6055C92.5385 44.6055 93.0854 44.5221 93.575 44.3555C94.0646 44.1784 94.4812 43.9596 94.825 43.6992C95.1687 43.4284 95.4344 43.1107 95.6219 42.7461H99.0125C98.7625 43.6628 98.3146 44.4648 97.6687 45.1523C97.0229 45.8398 96.2052 46.3763 95.2156 46.7617C94.2365 47.1471 93.1375 47.3398 91.9187 47.3398ZM101.353 30.0273H104.806L108.119 42.4805H108.275L111.587 30.0273H115.041L118.337 42.4023H118.509L121.806 30.0273H125.228L120.259 46.9961H116.853L113.416 34.7773H113.181L109.759 46.9961H106.337L101.353 30.0273ZM146.441 39.3086C146.17 39.3086 145.321 39.3607 143.894 39.4648L142.206 39.5898C141.081 39.6732 140.206 39.9336 139.581 40.3711C138.967 40.8086 138.659 41.4336 138.659 42.2461C138.659 42.7773 138.795 43.2253 139.066 43.5898C139.336 43.944 139.717 44.2201 140.206 44.418C140.696 44.6055 141.253 44.6992 141.878 44.6992C142.764 44.6992 143.529 44.5273 144.175 44.1836C144.831 43.8294 145.336 43.3607 145.691 42.7773C146.045 42.1836 146.222 41.5482 146.222 40.8711L146.206 35.5273C146.206 34.8815 146.076 34.3346 145.816 33.8867C145.566 33.4284 145.18 33.0846 144.659 32.8555C144.139 32.6159 143.503 32.4961 142.753 32.4961C141.805 32.4961 141.029 32.694 140.425 33.0898C139.831 33.4753 139.446 33.9961 139.269 34.6523H135.925C136.04 33.7044 136.394 32.8659 136.988 32.1367C137.581 31.4076 138.383 30.8398 139.394 30.4336C140.404 30.0169 141.56 29.8086 142.863 29.8086C143.956 29.8086 144.993 29.9753 145.972 30.3086C146.961 30.6315 147.8 31.2357 148.488 32.1211C149.175 32.9961 149.519 34.1992 149.519 35.7305V46.9961H146.284V44.668H146.159C145.93 45.1367 145.597 45.5742 145.159 45.9805C144.722 46.3867 144.159 46.7201 143.472 46.9805C142.795 47.2409 142.014 47.3711 141.128 47.3711C140.034 47.3711 139.055 47.168 138.191 46.7617C137.326 46.3555 136.644 45.7617 136.144 44.9805C135.644 44.1992 135.394 43.2773 135.394 42.2148C135.394 40.444 135.988 39.1836 137.175 38.4336C138.373 37.6836 139.894 37.2513 141.738 37.1367C141.988 37.1055 142.977 37.043 144.706 36.9492L146.409 36.8867L146.441 39.3086ZM157.109 46.9961H153.781V24.3711H157.109V46.9961ZM164.684 46.9961H161.356V24.3711H164.684V46.9961Z" fill="#5D3136"/>
</g>
<defs>
<clipPath id="clip0_2335_2197">
<rect width="327.03" height="72.6761" fill="white"/>
</clipPath>
</defs>
</svg>
