<svg width="106" height="106" viewBox="0 0 106 106" fill="none" xmlns="http://www.w3.org/2000/svg">
<g filter="url(#filter0_d_2177_4995)">
<rect x="3" y="1" width="100" height="100" rx="50" fill="#5D3136"/>
<path d="M40.0459 32H65.9541C67.4275 32 68.8397 32.5748 69.8789 33.5957V33.5967C70.9178 34.6174 71.5 35.9999 71.5 37.4395V44.9795C70.5387 44.7115 69.5443 44.5748 68.5449 44.5752H68.1484C68.0341 43.7063 67.626 42.903 66.9932 42.293L66.8604 42.1699C66.1351 41.5328 65.1977 41.1818 64.2275 41.1816H58.1807C57.2119 41.1835 56.2765 41.5356 55.5527 42.1729C54.8458 42.7955 54.3894 43.6479 54.2676 44.5752H51.7393C51.6172 43.6467 51.1598 42.7927 50.4512 42.1699C49.7259 41.5328 48.7886 41.1818 47.8184 41.1816H41.7725C40.8029 41.1827 39.8661 41.5344 39.1416 42.1719C38.4339 42.7946 37.9775 43.6473 37.8555 44.5752H37.4541C36.455 44.5744 35.4611 44.7108 34.5 44.9785V37.4395C34.5 35.9998 35.0821 34.6164 36.1211 33.5957C37.1603 32.5749 38.5724 32 40.0459 32Z" fill="#F9ECDF" stroke="#F9ECDF"/>
<path d="M74.0713 67.8408C74.067 67.4813 73.9265 67.1346 73.6758 66.876H73.6768C73.4256 66.6164 73.0826 66.4665 72.7207 66.4619H33.2793C32.9175 66.4665 32.5744 66.6164 32.3232 66.876C32.0727 67.1346 31.9329 67.4815 31.9287 67.8408V68.7305C31.9287 69.0719 31.7969 69.3968 31.5674 69.6338C31.3384 69.8701 31.0308 70 30.7139 70C30.3971 69.9999 30.0903 69.8701 29.8613 69.6338C29.6318 69.3968 29.5 69.0719 29.5 68.7305V56.3467L29.5059 56.042C29.5608 54.5217 30.0161 53.0445 30.8242 51.7705C31.6324 50.4967 32.7601 49.479 34.082 48.8223L34.3486 48.6953C35.238 48.293 36.1896 48.0615 37.1562 48.0107L37.5713 48H68.4287C69.5372 47.9991 70.6344 48.236 71.6504 48.6963H71.6514C73.0882 49.3448 74.3138 50.4131 75.1758 51.7715C76.0378 53.13 76.4984 54.72 76.5 56.3467V68.7305C76.5 69.0718 76.3682 69.3968 76.1387 69.6338C75.9096 69.87 75.6027 69.9999 75.2861 70C74.9692 70 74.6615 69.8701 74.4326 69.6338C74.2031 69.3968 74.0713 69.0719 74.0713 68.7305V67.8408Z" fill="#F9ECDF" stroke="#F9ECDF"/>
<path d="M40.1919 52.8086H47.5171V54.1924H44.686V62H43.0356V54.1924H40.1919V52.8086ZM56.6069 57.4043C56.6069 58.3734 56.425 59.2134 56.061 59.9243C55.6971 60.6353 55.1956 61.1812 54.5566 61.562C53.9219 61.9386 53.2004 62.127 52.3921 62.127C51.5838 62.127 50.8602 61.9386 50.2212 61.562C49.5864 61.1812 49.0871 60.6353 48.7231 59.9243C48.3592 59.2091 48.1772 58.3691 48.1772 57.4043C48.1772 56.4352 48.3592 55.5952 48.7231 54.8843C49.0871 54.1733 49.5864 53.6296 50.2212 53.2529C50.8602 52.8721 51.5838 52.6816 52.3921 52.6816C53.2004 52.6816 53.9219 52.8721 54.5566 53.2529C55.1956 53.6296 55.6971 54.1733 56.061 54.8843C56.425 55.5952 56.6069 56.4352 56.6069 57.4043ZM54.9438 57.4043C54.9438 56.7188 54.8359 56.1348 54.6201 55.6523C54.4085 55.1657 54.1102 54.7975 53.7251 54.5479C53.34 54.2939 52.8957 54.167 52.3921 54.167C51.8885 54.167 51.4442 54.2939 51.0591 54.5479C50.674 54.7975 50.3735 55.1657 50.1577 55.6523C49.9461 56.1348 49.8403 56.7188 49.8403 57.4043C49.8403 58.0898 49.9461 58.6759 50.1577 59.1626C50.3735 59.645 50.674 60.0132 51.0591 60.2671C51.4442 60.5168 51.8885 60.6416 52.3921 60.6416C52.8957 60.6416 53.34 60.5168 53.7251 60.2671C54.1102 60.0132 54.4085 59.645 54.6201 59.1626C54.8359 58.6759 54.9438 58.0898 54.9438 57.4043ZM58.0796 52.8086H61.5327C62.2183 52.8086 62.8044 52.9377 63.291 53.1958C63.7777 53.4539 64.1458 53.8136 64.3955 54.2749C64.6452 54.7319 64.77 55.2588 64.77 55.8555C64.77 56.4479 64.6431 56.9748 64.3892 57.436C64.1395 57.8931 63.7692 58.2507 63.2783 58.5088C62.7874 58.7627 62.1971 58.8896 61.5073 58.8896H59.73V62H58.0796V52.8086ZM61.2788 57.5312C61.8797 57.5312 62.3304 57.381 62.6309 57.0806C62.9313 56.7759 63.0815 56.3675 63.0815 55.8555C63.0815 55.3392 62.9313 54.9329 62.6309 54.6367C62.3304 54.3405 61.8797 54.1924 61.2788 54.1924H59.73V57.5312H61.2788Z" fill="#5D3136"/>
</g>
<defs>
<filter id="filter0_d_2177_4995" x="0" y="0" width="106" height="106" filterUnits="userSpaceOnUse" color-interpolation-filters="sRGB">
<feFlood flood-opacity="0" result="BackgroundImageFix"/>
<feColorMatrix in="SourceAlpha" type="matrix" values="0 0 0 0 0 0 0 0 0 0 0 0 0 0 0 0 0 0 127 0" result="hardAlpha"/>
<feOffset dy="2"/>
<feGaussianBlur stdDeviation="1.5"/>
<feComposite in2="hardAlpha" operator="out"/>
<feColorMatrix type="matrix" values="0 0 0 0 0.364706 0 0 0 0 0.192157 0 0 0 0 0.211765 0 0 0 0.25 0"/>
<feBlend mode="normal" in2="BackgroundImageFix" result="effect1_dropShadow_2177_4995"/>
<feBlend mode="normal" in="SourceGraphic" in2="effect1_dropShadow_2177_4995" result="shape"/>
</filter>
</defs>
</svg>
