<svg width="88" height="88" viewBox="0 0 88 88" fill="none" xmlns="http://www.w3.org/2000/svg">
<g filter="url(#filter0_d_2011_1636)">
<rect x="3" y="1" width="82" height="82" rx="41" fill="url(#paint0_linear_2011_1636)" shape-rendering="crispEdges"/>
<rect x="3.5" y="1.5" width="81" height="81" rx="40.5" stroke="white" stroke-opacity="0.1" shape-rendering="crispEdges"/>
<path d="M31.0459 23H56.9541C58.4275 23 59.8397 23.5748 60.8789 24.5957V24.5967C61.9178 25.6174 62.5 26.9999 62.5 28.4395V35.9795C61.5387 35.7115 60.5443 35.5748 59.5449 35.5752H59.1484C59.0341 34.7063 58.626 33.903 57.9932 33.293L57.8604 33.1699C57.1351 32.5328 56.1977 32.1818 55.2275 32.1816H49.1807C48.2119 32.1835 47.2765 32.5356 46.5527 33.1729C45.8458 33.7955 45.3894 34.6479 45.2676 35.5752H42.7393C42.6172 34.6467 42.1598 33.7927 41.4512 33.1699C40.7259 32.5328 39.7886 32.1818 38.8184 32.1816H32.7725C31.8029 32.1827 30.8661 32.5344 30.1416 33.1719C29.4339 33.7946 28.9775 34.6473 28.8555 35.5752H28.4541C27.455 35.5744 26.4611 35.7108 25.5 35.9785V28.4395C25.5 26.9998 26.0821 25.6164 27.1211 24.5957C28.1603 23.5749 29.5724 23 31.0459 23Z" fill="#F9ECDF" stroke="#F9ECDF"/>
<path d="M65.0713 58.8408C65.067 58.4813 64.9265 58.1346 64.6758 57.876H64.6768C64.4256 57.6164 64.0826 57.4665 63.7207 57.4619H24.2793C23.9175 57.4665 23.5744 57.6164 23.3232 57.876C23.0727 58.1346 22.9329 58.4815 22.9287 58.8408V59.7305C22.9287 60.0719 22.7969 60.3968 22.5674 60.6338C22.3384 60.8701 22.0308 61 21.7139 61C21.3971 60.9999 21.0903 60.8701 20.8613 60.6338C20.6318 60.3968 20.5 60.0719 20.5 59.7305V47.3467L20.5059 47.042C20.5608 45.5217 21.0161 44.0445 21.8242 42.7705C22.6324 41.4967 23.7601 40.479 25.082 39.8223L25.3486 39.6953C26.238 39.293 27.1896 39.0615 28.1562 39.0107L28.5713 39H59.4287C60.5372 38.9991 61.6344 39.236 62.6504 39.6963H62.6514C64.0882 40.3448 65.3138 41.4131 66.1758 42.7715C67.0378 44.13 67.4984 45.72 67.5 47.3467V59.7305C67.5 60.0718 67.3682 60.3968 67.1387 60.6338C66.9096 60.87 66.6027 60.9999 66.2861 61C65.9692 61 65.6615 60.8701 65.4326 60.6338C65.2031 60.3968 65.0713 60.0719 65.0713 59.7305V58.8408Z" fill="#F9ECDF" stroke="#F9ECDF"/>
<path d="M31.1919 43.8086H38.5171V45.1924H35.686V53H34.0356V45.1924H31.1919V43.8086ZM47.6069 48.4043C47.6069 49.3734 47.425 50.2134 47.061 50.9243C46.6971 51.6353 46.1956 52.1812 45.5566 52.562C44.9219 52.9386 44.2004 53.127 43.3921 53.127C42.5838 53.127 41.8602 52.9386 41.2212 52.562C40.5864 52.1812 40.0871 51.6353 39.7231 50.9243C39.3592 50.2091 39.1772 49.3691 39.1772 48.4043C39.1772 47.4352 39.3592 46.5952 39.7231 45.8843C40.0871 45.1733 40.5864 44.6296 41.2212 44.2529C41.8602 43.8721 42.5838 43.6816 43.3921 43.6816C44.2004 43.6816 44.9219 43.8721 45.5566 44.2529C46.1956 44.6296 46.6971 45.1733 47.061 45.8843C47.425 46.5952 47.6069 47.4352 47.6069 48.4043ZM45.9438 48.4043C45.9438 47.7188 45.8359 47.1348 45.6201 46.6523C45.4085 46.1657 45.1102 45.7975 44.7251 45.5479C44.34 45.2939 43.8957 45.167 43.3921 45.167C42.8885 45.167 42.4442 45.2939 42.0591 45.5479C41.674 45.7975 41.3735 46.1657 41.1577 46.6523C40.9461 47.1348 40.8403 47.7188 40.8403 48.4043C40.8403 49.0898 40.9461 49.6759 41.1577 50.1626C41.3735 50.645 41.674 51.0132 42.0591 51.2671C42.4442 51.5168 42.8885 51.6416 43.3921 51.6416C43.8957 51.6416 44.34 51.5168 44.7251 51.2671C45.1102 51.0132 45.4085 50.645 45.6201 50.1626C45.8359 49.6759 45.9438 49.0898 45.9438 48.4043ZM49.0796 43.8086H52.5327C53.2183 43.8086 53.8044 43.9377 54.291 44.1958C54.7777 44.4539 55.1458 44.8136 55.3955 45.2749C55.6452 45.7319 55.77 46.2588 55.77 46.8555C55.77 47.4479 55.6431 47.9748 55.3892 48.436C55.1395 48.8931 54.7692 49.2507 54.2783 49.5088C53.7874 49.7627 53.1971 49.8896 52.5073 49.8896H50.73V53H49.0796V43.8086ZM52.2788 48.5312C52.8797 48.5312 53.3304 48.381 53.6309 48.0806C53.9313 47.7759 54.0815 47.3675 54.0815 46.8555C54.0815 46.3392 53.9313 45.9329 53.6309 45.6367C53.3304 45.3405 52.8797 45.1924 52.2788 45.1924H50.73V48.5312H52.2788Z" fill="#5D3136"/>
</g>
<defs>
<filter id="filter0_d_2011_1636" x="0" y="0" width="88" height="88" filterUnits="userSpaceOnUse" color-interpolation-filters="sRGB">
<feFlood flood-opacity="0" result="BackgroundImageFix"/>
<feColorMatrix in="SourceAlpha" type="matrix" values="0 0 0 0 0 0 0 0 0 0 0 0 0 0 0 0 0 0 127 0" result="hardAlpha"/>
<feOffset dy="2"/>
<feGaussianBlur stdDeviation="1.5"/>
<feComposite in2="hardAlpha" operator="out"/>
<feColorMatrix type="matrix" values="0 0 0 0 0.364706 0 0 0 0 0.192157 0 0 0 0 0.211765 0 0 0 0.25 0"/>
<feBlend mode="normal" in2="BackgroundImageFix" result="effect1_dropShadow_2011_1636"/>
<feBlend mode="normal" in="SourceGraphic" in2="effect1_dropShadow_2011_1636" result="shape"/>
</filter>
<linearGradient id="paint0_linear_2011_1636" x1="78.85" y1="66.0875" x2="-49.275" y2="-32.3125" gradientUnits="userSpaceOnUse">
<stop stop-color="#5D3136"/>
<stop offset="0.5" stop-color="#5D3136" stop-opacity="0.8"/>
<stop offset="1" stop-color="#5D3136" stop-opacity="0.3"/>
</linearGradient>
</defs>
</svg>
