<svg width="88" height="88" viewBox="0 0 88 88" fill="none" xmlns="http://www.w3.org/2000/svg">
<g filter="url(#filter0_d_2648_118)">
<rect x="3" y="1" width="82" height="82" rx="41" fill="url(#paint0_linear_2648_118)" shape-rendering="crispEdges"/>
<rect x="3.5" y="1.5" width="81" height="81" rx="40.5" stroke="white" stroke-opacity="0.1" shape-rendering="crispEdges"/>
<path d="M25.2422 34.8594H36.1992V36.7148H31.8047V49H29.6563V36.7148H25.2422V34.8594ZM50.0664 41.9297C50.0664 43.401 49.793 44.6868 49.2461 45.7871C48.6992 46.8809 47.9408 47.724 46.9707 48.3164C46.0072 48.9023 44.9167 49.1953 43.6992 49.1953C42.4688 49.1953 41.3685 48.9023 40.3984 48.3164C39.4349 47.724 38.6797 46.8809 38.1328 45.7871C37.5859 44.6868 37.3125 43.401 37.3125 41.9297C37.3125 40.4518 37.5859 39.166 38.1328 38.0723C38.6797 36.972 39.4349 36.1289 40.3984 35.543C41.3685 34.957 42.4688 34.6641 43.6992 34.6641C44.9167 34.6641 46.0072 34.957 46.9707 35.543C47.9408 36.1289 48.6992 36.972 49.2461 38.0723C49.793 39.166 50.0664 40.4518 50.0664 41.9297ZM47.9375 41.9297C47.9375 40.8099 47.7552 39.8529 47.3906 39.0586C47.026 38.2643 46.5215 37.6621 45.877 37.252C45.2389 36.8418 44.513 36.6367 43.6992 36.6367C42.8789 36.6367 42.1465 36.8418 41.502 37.252C40.8574 37.6621 40.3529 38.2643 39.9883 39.0586C39.6237 39.8529 39.4414 40.8099 39.4414 41.9297C39.4414 43.0495 39.6237 44.0065 39.9883 44.8008C40.3529 45.5951 40.8574 46.1973 41.502 46.6074C42.1465 47.0176 42.8789 47.2227 43.6992 47.2227C44.513 47.2227 45.2389 47.0176 45.877 46.6074C46.5215 46.1973 47.026 45.5951 47.3906 44.8008C47.7552 44 47.9375 43.043 47.9375 41.9297ZM52.4883 34.8594H57.5273C58.5885 34.8594 59.487 35.0579 60.2227 35.4551C60.9583 35.8457 61.5085 36.3861 61.873 37.0762C62.2441 37.7663 62.4297 38.5573 62.4297 39.4492C62.4297 40.3346 62.2441 41.1224 61.873 41.8125C61.5085 42.5026 60.9583 43.0462 60.2227 43.4434C59.487 43.8405 58.5885 44.0391 57.5273 44.0391H54.6367V49H52.4883V34.8594ZM57.3125 42.2031C58.3086 42.2031 59.0475 41.9557 59.5293 41.4609C60.0176 40.9596 60.2617 40.2891 60.2617 39.4492C60.2617 38.6029 60.0208 37.9323 59.5391 37.4375C59.0573 36.9427 58.3151 36.6953 57.3125 36.6953H54.6367V42.2031H57.3125Z" fill="white"/>
</g>
<defs>
<filter id="filter0_d_2648_118" x="0" y="0" width="88" height="88" filterUnits="userSpaceOnUse" color-interpolation-filters="sRGB">
<feFlood flood-opacity="0" result="BackgroundImageFix"/>
<feColorMatrix in="SourceAlpha" type="matrix" values="0 0 0 0 0 0 0 0 0 0 0 0 0 0 0 0 0 0 127 0" result="hardAlpha"/>
<feOffset dy="2"/>
<feGaussianBlur stdDeviation="1.5"/>
<feComposite in2="hardAlpha" operator="out"/>
<feColorMatrix type="matrix" values="0 0 0 0 0.364706 0 0 0 0 0.192157 0 0 0 0 0.211765 0 0 0 0.25 0"/>
<feBlend mode="normal" in2="BackgroundImageFix" result="effect1_dropShadow_2648_118"/>
<feBlend mode="normal" in="SourceGraphic" in2="effect1_dropShadow_2648_118" result="shape"/>
</filter>
<linearGradient id="paint0_linear_2648_118" x1="78.85" y1="66.0875" x2="-49.275" y2="-32.3125" gradientUnits="userSpaceOnUse">
<stop stop-color="#5D3136"/>
<stop offset="0.5" stop-color="#5D3136" stop-opacity="0.8"/>
<stop offset="1" stop-color="#5D3136" stop-opacity="0.3"/>
</linearGradient>
</defs>
</svg>
