<svg width="1319" height="1332" viewBox="0 0 1319 1332" fill="none" xmlns="http://www.w3.org/2000/svg">
<path d="M1037.57 391.495C1097.46 474.804 1130.73 574.178 1133 676.504C1135.28 778.829 1106.44 879.296 1050.3 964.645L825.972 816.815C852.391 776.651 865.961 729.372 864.892 681.219C863.822 633.066 848.163 586.302 819.982 547.098L1037.57 391.495Z" stroke="black"/>
<path d="M1035.19 986.348C974.643 1068.62 890.46 1130.51 793.752 1163.85C697.045 1197.18 592.358 1200.39 493.507 1173.06L563.952 914.891C610.469 927.754 659.734 926.243 705.243 910.557C750.753 894.87 790.368 865.746 818.861 827.028L1035.19 986.348Z" stroke="black"/>
<path d="M470.237 1162.53C372.93 1130.07 287.627 1068.95 225.586 987.225C163.545 905.501 127.682 807.019 122.729 704.776L390.594 693.05C392.925 741.165 409.802 787.509 438.997 825.968C468.193 864.426 508.336 893.191 554.127 908.465L470.237 1162.53Z" stroke="black"/>
<path d="M120.019 681.069C120.428 578.732 151.891 479.065 210.255 395.224C268.619 311.382 351.141 247.305 446.931 211.45L542.036 462.37C496.959 479.243 458.125 509.396 430.659 548.851C403.194 588.306 388.388 635.208 388.195 683.367L120.019 681.069Z" stroke="black"/>
<path d="M471.968 202.817C569.527 172.027 674.275 171.555 772.387 201.462C870.499 231.369 957.364 290.25 1021.52 370.334L812.432 537.136C782.241 499.45 741.364 471.741 695.193 457.667C649.023 443.593 599.73 443.816 553.82 458.305L471.968 202.817Z" stroke="black"/>
</svg>
