<svg width="1417" height="1418" viewBox="0 0 1417 1418" fill="none" xmlns="http://www.w3.org/2000/svg">
<path d="M1117.92 416.145C1177.8 499.454 1211.08 598.828 1213.35 701.154C1215.62 803.479 1186.79 903.946 1130.65 989.295L906.32 841.465C932.738 801.301 946.309 754.022 945.239 705.869C944.17 657.716 928.511 610.951 900.33 571.747L1117.92 416.145Z" stroke="black"/>
<path d="M1115.54 1011C1054.99 1093.27 970.809 1155.16 874.102 1188.5C777.394 1221.83 672.707 1225.04 573.857 1197.71L644.301 939.54C690.819 952.404 740.083 950.893 785.593 935.206C831.102 919.52 870.718 890.396 899.211 851.677L1115.54 1011Z" stroke="black"/>
<path d="M550.583 1187.18C453.276 1154.72 367.974 1093.6 305.932 1011.87C243.891 930.15 208.028 831.668 203.075 729.425L470.94 717.699C473.271 765.814 490.148 812.159 519.343 850.617C548.539 889.075 588.682 917.84 634.473 933.115L550.583 1187.18Z" stroke="black"/>
<path d="M200.365 705.72C200.774 603.382 232.237 503.716 290.601 419.874C348.965 336.032 431.487 271.955 527.277 236.1L622.382 487.02C577.305 503.893 538.471 534.047 511.005 573.502C483.54 612.957 468.734 659.859 468.541 708.017L200.365 705.72Z" stroke="black"/>
<path d="M552.315 227.467C649.875 196.678 754.623 196.206 852.735 226.113C950.847 256.02 1037.71 314.9 1101.87 394.984L892.779 561.787C862.589 524.1 821.711 496.392 775.541 482.318C729.371 468.244 680.078 468.466 634.167 482.955L552.315 227.467Z" stroke="black"/>
</svg>
