<svg width="328" height="73" viewBox="0 0 328 73" fill="none" xmlns="http://www.w3.org/2000/svg">
<g clip-path="url(#clip0_2426_1940)">
<g clip-path="url(#clip1_2426_1940)">
<path d="M310.73 7.35985C319.94 13.8898 325.61 24.4498 325.61 35.7398C325.61 55.7699 308.42 71.7898 288.6 70.4799C279.12 69.8499 270.82 65.4998 264.59 58.4898C261.25 54.7299 257.89 51.1898 253.66 48.5098C243.77 42.2398 231.32 43.3699 222.53 50.8598C219.1 53.7898 216.33 56.5498 213.02 59.7498C206.95 65.6098 198.78 70.2098 189.86 70.2098L35.1401 70.1098C17.7701 70.0998 3.50013 55.3198 2.12013 38.5298C0.930128 24.0698 8.67013 10.7098 21.3901 4.31985C25.2701 2.36985 29.6501 1.08985 34.0601 1.08985L79.7601 1.05985L148.27 1.07985L191.11 1.21985C199.76 1.24985 207.27 5.91985 212.96 11.8798C216.34 15.4198 219.35 18.6098 223.21 21.5598C234.61 30.2798 248.55 28.9298 258.91 19.2098C261.25 17.0198 263.01 14.7998 265.14 12.3698C276.55 -0.640154 296.51 -2.74015 310.74 7.34985L310.73 7.35985ZM319.71 42.2898C322.51 29.9698 317.27 17.7598 307.12 11.0098C296.97 4.25985 283.14 4.44985 273.18 11.8198C263.22 19.1898 258.84 31.4098 262.12 43.4198C265.43 55.5398 276.17 64.3398 288.78 65.2198C303.59 66.2498 316.55 56.1998 319.71 42.2798V42.2898Z" fill="#F9ECDF"/>
</g>
<path d="M305.877 69.4646C296.287 74.0146 282.977 73.7346 273.517 68.5946C263.387 63.0946 262.537 57.5946 253.317 51.1046C244.747 45.0746 233.567 45.2046 225.157 51.3746C221.087 54.3646 217.707 57.6246 214.137 61.2946C207.547 68.0746 198.617 72.4846 188.847 72.4846L36.3969 72.5146C20.1769 72.5146 6.05689 61.9146 1.47689 46.3846C-3.03311 31.1146 3.02689 14.5546 16.3669 5.68456C21.0469 2.56456 26.6769 0.144564 32.5869 0.154564L191.477 0.224564C200.257 0.224564 208.337 5.55456 214.037 11.4246C217.657 15.1546 220.677 18.4146 224.727 21.3746C232.697 27.1946 242.747 27.9246 251.387 23.0546C255.817 20.5546 259.287 16.9946 262.497 13.0746C270.177 3.67456 281.367 -0.825436 293.547 0.124564C308.007 1.24456 320.287 10.9546 325.037 24.6646C331.167 42.3346 322.707 61.4946 305.877 69.4846V69.4646ZM310.447 7.95456C296.217 -2.13544 276.267 -0.0354366 264.847 12.9746C262.717 15.4046 260.947 17.6146 258.617 19.8146C248.257 29.5346 234.327 30.8846 222.917 22.1646C219.057 19.2146 216.047 16.0246 212.667 12.4846C206.977 6.52456 199.477 1.84456 190.817 1.82456L147.977 1.68456L79.4669 1.66456L33.7669 1.69456C29.3469 1.69456 24.9769 2.97456 21.0969 4.92456C8.38689 11.3046 0.646894 24.6646 1.83689 39.1246C3.21689 55.9146 17.4869 70.6946 34.8569 70.7046L189.577 70.8046C198.497 70.8046 206.677 66.2046 212.737 60.3446C216.047 57.1446 218.817 54.3846 222.247 51.4546C231.027 43.9646 243.487 42.8346 253.377 49.1046C257.607 51.7846 260.957 55.3146 264.307 59.0846C270.537 66.0946 278.837 70.4446 288.317 71.0746C308.137 72.3846 325.317 56.3646 325.327 36.3346C325.327 25.0546 319.657 14.4846 310.447 7.95456Z" fill="#5D3136"/>
</g>
<defs>
<clipPath id="clip0_2426_1940">
<rect width="327.03" height="72.6761" fill="white"/>
</clipPath>
<clipPath id="clip1_2426_1940">
<rect width="323.61" height="69.54" fill="white" transform="translate(2 1)"/>
</clipPath>
</defs>
</svg>
