<svg width="327" height="73" viewBox="0 0 327 73" fill="none" xmlns="http://www.w3.org/2000/svg">
<path d="M305.848 69.7741C296.259 74.3444 282.95 74.0632 273.491 68.9003C263.362 63.3758 262.512 57.8512 253.293 51.3323C244.724 45.2754 233.545 45.406 225.136 51.6035C221.066 54.6068 217.687 57.8814 214.117 61.5677C207.528 68.3779 198.598 72.8076 188.829 72.8076L36.3935 72.8377C20.175 72.8377 6.05633 62.1905 1.47676 46.5913C-3.03282 31.2532 3.02661 14.6194 16.3654 5.7099C21.0449 2.57599 26.6744 0.145208 32.5839 0.155253L191.459 0.225565C200.238 0.225565 208.317 5.57932 214.017 11.4755C217.637 15.2221 220.656 18.4966 224.706 21.4698C232.675 27.3158 242.724 28.049 251.363 23.1573C255.793 20.6462 259.263 17.0703 262.472 13.1328C270.152 3.69094 281.341 -0.829115 293.52 0.125119C307.978 1.25011 320.257 11.0034 325.007 24.7745C331.136 42.5232 322.677 61.7686 305.848 69.7942V69.7741ZM310.418 7.99001C296.189 -2.14495 276.241 -0.0355946 264.822 13.0324C262.692 15.4732 260.923 17.6931 258.593 19.9029C248.234 29.6662 234.305 31.0222 222.896 22.2633C219.036 19.3002 216.027 16.096 212.647 12.5402C206.958 6.55364 199.458 1.85278 190.799 1.8327L147.963 1.69207L79.4595 1.67198L33.7637 1.70212C29.3442 1.70212 24.9746 2.98782 21.0949 4.94651C8.38611 11.3549 0.646833 24.7745 1.83672 39.2989C3.21659 56.1638 17.4853 71.0096 34.8536 71.0197L189.559 71.1201C198.478 71.1201 206.658 66.4996 212.717 60.6135C216.027 57.3992 218.796 54.6269 222.226 51.6839C231.005 44.1605 243.464 43.0255 253.353 49.3234C257.583 52.0153 260.933 55.5611 264.282 59.3479C270.512 66.3891 278.811 70.7585 288.29 71.3913C308.108 72.7072 325.287 56.6158 325.297 36.4965C325.297 25.1662 319.627 14.5491 310.418 7.99001Z" fill="#5D3136"/>
<ellipse cx="290.5" cy="35.4944" rx="29.5" ry="29.4944" fill="#5D3136"/>
<path d="M280.359 25H299.999V45" stroke="#F9ECDF" stroke-width="3"/>
<path d="M299.639 25L280 45" stroke="#F9ECDF" stroke-width="3"/>
<path d="M45.8719 43.7656H46.1219L52.4187 25.375H56.1375L47.9969 48H44.0125L35.8875 25.375H39.6062L45.8719 43.7656ZM58.9781 31.0312H62.3062V48H58.9781V31.0312ZM60.6344 28.4062C60.2594 28.4062 59.9104 28.3229 59.5875 28.1562C59.2646 27.9792 59.0094 27.7396 58.8219 27.4375C58.6344 27.125 58.5406 26.7917 58.5406 26.4375C58.5406 26.0729 58.6344 25.7448 58.8219 25.4531C59.0094 25.151 59.2646 24.9115 59.5875 24.7344C59.9104 24.5573 60.2594 24.4688 60.6344 24.4688C61.0302 24.4688 61.3896 24.5573 61.7125 24.7344C62.0354 24.9115 62.2854 25.151 62.4625 25.4531C62.65 25.7448 62.7437 26.0729 62.7437 26.4375C62.7437 26.7917 62.65 27.125 62.4625 27.4375C62.2854 27.7396 62.0354 27.9792 61.7125 28.1562C61.3896 28.3229 61.0302 28.4062 60.6344 28.4062ZM73.8969 48.3438C72.2615 48.3438 70.8292 47.9844 69.6 47.2656C68.3812 46.5469 67.4437 45.5312 66.7875 44.2188C66.1312 42.9062 65.8031 41.3802 65.8031 39.6406C65.8031 37.901 66.1312 36.3646 66.7875 35.0312C67.4437 33.6875 68.3656 32.651 69.5531 31.9219C70.7406 31.1823 72.1104 30.8125 73.6625 30.8125C75.0375 30.8125 76.2927 31.1094 77.4281 31.7031C78.5635 32.2865 79.475 33.2188 80.1625 34.5C80.85 35.7708 81.1937 37.3802 81.1937 39.3281V40.5H67.6781V38.0156H77.9281C77.9281 37.151 77.751 36.3854 77.3969 35.7188C77.0531 35.0417 76.5583 34.5104 75.9125 34.125C75.2667 33.7396 74.5271 33.5469 73.6937 33.5469C72.7875 33.5469 71.9906 33.7656 71.3031 34.2031C70.6156 34.6406 70.0792 35.2292 69.6937 35.9688C69.3083 36.7083 69.1156 37.5 69.1156 38.3438V40.2812C69.1156 41.3958 69.3135 42.3542 69.7094 43.1562C70.1156 43.9583 70.6781 44.5677 71.3969 44.9844C72.126 45.401 72.9646 45.6094 73.9125 45.6094C74.5167 45.6094 75.0635 45.526 75.5531 45.3594C76.0427 45.1823 76.4594 44.9635 76.8031 44.7031C77.1469 44.4323 77.4125 44.1146 77.6 43.75H80.9906C80.7406 44.6667 80.2927 45.4688 79.6469 46.1562C79.001 46.8438 78.1833 47.3802 77.1937 47.7656C76.2146 48.151 75.1156 48.3438 73.8969 48.3438ZM83.3312 31.0312H86.7844L90.0969 43.4844H90.2531L93.5656 31.0312H97.0187L100.316 43.4062H100.487L103.784 31.0312H107.206L102.237 48H98.8312L95.3937 35.7812H95.1594L91.7375 48H88.3156L83.3312 31.0312ZM122.622 25.375L129.809 42.9062H130.075L137.262 25.375H141.434V48H138.153V31.6562H137.934L131.278 47.9688H128.575L121.919 31.6562H121.731V48H118.45V25.375H122.622ZM153.15 48.3438C151.567 48.3438 150.171 47.9792 148.962 47.25C147.765 46.5208 146.837 45.4948 146.181 44.1719C145.525 42.849 145.197 41.3229 145.197 39.5938C145.197 37.8438 145.525 36.3073 146.181 34.9844C146.837 33.6615 147.765 32.6354 148.962 31.9062C150.171 31.1771 151.567 30.8125 153.15 30.8125C154.723 30.8125 156.108 31.1771 157.306 31.9062C158.504 32.6354 159.426 33.6615 160.072 34.9844C160.718 36.3073 161.041 37.8438 161.041 39.5938C161.041 41.3229 160.718 42.849 160.072 44.1719C159.426 45.4948 158.504 46.5208 157.306 47.25C156.108 47.9792 154.723 48.3438 153.15 48.3438ZM153.15 45.5625C154.15 45.5625 154.989 45.2969 155.666 44.7656C156.343 44.224 156.848 43.5052 157.181 42.6094C157.515 41.7031 157.681 40.6927 157.681 39.5781C157.681 38.4635 157.515 37.4531 157.181 36.5469C156.848 35.6406 156.343 34.9219 155.666 34.3906C154.989 33.849 154.15 33.5781 153.15 33.5781C152.15 33.5781 151.306 33.849 150.619 34.3906C149.931 34.9219 149.416 35.6406 149.072 36.5469C148.728 37.4531 148.556 38.4635 148.556 39.5781C148.556 40.6927 148.728 41.7031 149.072 42.6094C149.416 43.5052 149.931 44.224 150.619 44.7656C151.306 45.2969 152.15 45.5625 153.15 45.5625ZM164.584 31.0312H167.803V33.75H167.991C168.293 32.8125 168.834 32.0833 169.616 31.5625C170.397 31.0312 171.277 30.7656 172.256 30.7656C172.777 30.7656 173.256 30.7969 173.694 30.8594V34.0469C173.558 33.9948 173.314 33.9479 172.959 33.9062C172.605 33.8542 172.267 33.8281 171.944 33.8281C171.194 33.8281 170.511 33.9948 169.897 34.3281C169.282 34.651 168.798 35.1042 168.444 35.6875C168.09 36.2708 167.912 36.9271 167.912 37.6562V48H164.584V31.0312ZM183.159 48.3438C181.524 48.3438 180.092 47.9844 178.863 47.2656C177.644 46.5469 176.706 45.5312 176.05 44.2188C175.394 42.9062 175.066 41.3802 175.066 39.6406C175.066 37.901 175.394 36.3646 176.05 35.0312C176.706 33.6875 177.628 32.651 178.816 31.9219C180.003 31.1823 181.373 30.8125 182.925 30.8125C184.3 30.8125 185.555 31.1094 186.691 31.7031C187.826 32.2865 188.738 33.2188 189.425 34.5C190.113 35.7708 190.456 37.3802 190.456 39.3281V40.5H176.941V38.0156H187.191C187.191 37.151 187.014 36.3854 186.659 35.7188C186.316 35.0417 185.821 34.5104 185.175 34.125C184.529 33.7396 183.79 33.5469 182.956 33.5469C182.05 33.5469 181.253 33.7656 180.566 34.2031C179.878 34.6406 179.342 35.2292 178.956 35.9688C178.571 36.7083 178.378 37.5 178.378 38.3438V40.2812C178.378 41.3958 178.576 42.3542 178.972 43.1562C179.378 43.9583 179.941 44.5677 180.659 44.9844C181.389 45.401 182.227 45.6094 183.175 45.6094C183.779 45.6094 184.326 45.526 184.816 45.3594C185.305 45.1823 185.722 44.9635 186.066 44.7031C186.409 44.4323 186.675 44.1146 186.863 43.75H190.253C190.003 44.6667 189.555 45.4688 188.909 46.1562C188.264 46.8438 187.446 47.3802 186.456 47.7656C185.477 48.151 184.378 48.3438 183.159 48.3438Z" fill="#5D3136"/>
</svg>
