<svg width="723" height="216" viewBox="0 0 723 216" fill="none" xmlns="http://www.w3.org/2000/svg">
<g opacity="0.7" clip-path="url(#clip0_2648_1828)">
<path d="M166.882 17.3926C200.453 12.4706 226.697 14.8843 247.106 16.9194C281.547 20.3269 310.152 27.8282 329.285 32.8449C343.696 36.631 350.644 38.9737 373.903 45.0316C394.257 50.3322 411.084 54.2366 422.238 56.745L508.244 74.0666C532.29 78.894 582.742 81.7809 608.633 77.0482C593.408 77.4505 577.287 77.3795 560.352 76.6459C552.97 76.3146 545.751 75.8887 538.722 75.3681C533.131 75.0368 526.943 74.5399 520.348 73.3804C514.35 72.3392 508.542 71.0614 503.06 69.9255C557.964 72.1735 604.4 81.4496 652.057 60.0105C611.727 68.3164 588.17 74.3032 546.429 69.5706L510.578 65.5004C524.935 65.3585 536.496 64.6012 543.878 64.0096C563.609 62.4005 620.276 56.461 685.466 29.2244C693.581 25.8405 699.958 22.8826 703.514 21.2261C700.718 25.2726 697.624 29.8396 693.363 34.2174C689.591 38.0745 685.547 41.766 681.476 46.2147C701.125 35.4952 717.165 20.5635 722.62 0C681.123 37.8615 604.59 54.0473 547.922 58.4961C542.63 58.922 517.526 61.0517 483.954 59.064C415.481 55.0412 354.715 36.6547 286.133 15.9255C264.394 9.27607 235.952 0.189308 197.414 1.37248C177.059 1.98773 161.291 5.32428 151.928 7.33567C134.205 11.1455 99.7652 18.8834 65.6778 42.5232C56.0433 49.1963 42.8534 59.6319 29.8535 74.8238C43.939 64.4592 64.4294 51.3024 91.4334 39.6599C106.387 33.2235 131.573 22.5749 166.882 17.369V17.3926Z" fill="#F9ECDF"/>
<path d="M263.526 208.735C261.762 206.416 261.165 204.168 260.948 202.796C259.835 173.24 258.75 143.708 257.637 114.152C257.501 112.733 257.501 109.964 259.021 106.888C260.921 103.03 264.096 100.948 265.48 100.144C255.167 100.262 244.854 100.357 234.514 100.475C235.518 101.09 238.422 102.983 239.644 106.485C240.322 108.402 240.213 110.106 240.051 111.123L211.418 183.013L184.034 119.24C183.193 117.536 182.325 115.288 181.945 112.543C181.158 106.982 182.786 102.51 183.872 100.144H152.905C154.724 101.54 158.035 104.498 159.934 109.136C161.074 111.952 161.346 114.46 161.346 116.235L155.294 198.915C155.483 200.595 155.619 204.499 153.204 208.711C151.358 211.93 148.807 213.894 147.314 214.888L176.082 214.367C174.861 213.87 171.333 212.261 169.298 208.711C168.185 206.771 167.913 204.949 167.886 203.813C168.375 177.783 168.863 151.777 169.352 125.747L208.65 214.911L243.389 125.392L245.804 197.282C245.831 199.033 245.641 201.352 244.773 203.908C242.927 209.374 239.074 212.805 237.038 214.391H271.533C270.013 213.87 266.186 212.356 263.472 208.735H263.526Z" fill="#F9ECDF"/>
<path d="M392.656 209.516C390.892 207.197 390.295 204.949 390.078 203.577C388.965 174.021 387.88 144.489 386.767 114.934C386.631 113.514 386.631 110.745 388.151 107.669C390.051 103.812 393.226 101.729 394.61 100.925C384.297 101.043 373.984 101.138 363.644 101.256C364.648 101.871 367.552 103.764 368.773 107.267C369.452 109.183 369.343 110.887 369.18 111.905L340.548 183.794L313.164 120.021C312.323 118.317 311.454 116.069 311.075 113.324C310.287 107.764 311.916 103.291 313.001 100.925H282.035C283.853 102.321 287.164 105.279 289.064 109.917C290.204 112.733 290.476 115.241 290.476 117.016L284.423 199.696C284.613 201.376 284.749 205.281 282.334 209.493C280.488 212.711 277.937 214.675 276.444 215.669C286.025 215.503 295.632 215.314 305.212 215.148C303.991 214.651 300.463 213.042 298.427 209.493C297.315 207.552 297.043 205.73 297.016 204.594C297.505 178.565 297.993 152.558 298.482 126.529L337.78 215.693L372.519 126.174L374.934 198.063C374.961 199.814 374.771 202.133 373.903 204.689C372.057 210.155 368.203 213.586 366.168 215.172H400.662C399.143 214.651 395.316 213.137 392.602 209.516H392.656Z" fill="#F9ECDF"/>
<path d="M612.759 207.008C611.592 204.902 611.158 202.961 610.968 201.518C609.34 188.148 609.991 115.052 609.991 115.052C610.099 113.088 610.642 109.207 613.573 105.302C615.147 103.22 616.912 101.776 618.296 100.83C607.874 101.09 597.48 101.35 587.058 101.611C588.713 102.747 590.423 104.119 592.106 105.752C592.54 106.154 592.92 106.58 593.3 106.982C595.471 108.875 596.91 110.792 597.832 113.088C598.701 115.241 599.569 117.323 599.841 118.435C600.981 123.168 601.578 151.73 601.116 190.822C580.626 165.691 548.9 126.434 536.985 100.546L510.117 102.889C514.351 106.485 518.313 110.508 518.313 113.774C518.205 143.613 518.123 173.453 518.015 203.316C517.77 204.144 517.445 205.02 516.983 205.896C514.107 211.291 508 213.634 505.422 214.462H543.255C541.653 214.083 535.845 212.498 532.779 207.599C531.856 206.109 531.395 204.665 531.177 203.506C531.069 200.642 530.987 197.803 530.879 194.939C530.092 172.435 529.305 149.932 528.518 127.428L582.987 197.4C583.964 198.773 585.701 201.636 585.999 205.612C586.325 209.8 584.86 212.995 584.073 214.462H620.874C619.11 213.586 615.175 211.338 612.786 207.031L612.759 207.008Z" fill="#F9ECDF"/>
<path d="M77.7275 160.296L35.8239 142.596C26.8135 138.786 21.2228 128.043 22.6612 120.518C24.1538 112.686 33.327 105.941 42.7988 104.119C53.0576 102.155 61.3894 104.522 63.9677 105.421C79.5187 110.982 84.5124 124.73 85.2452 126.884C84.7295 122.671 84.5395 117.04 85.7337 110.579C86.6293 105.634 88.122 101.422 89.5875 98.0852C64.9719 102.96 41.089 89.1877 15.3606 108C5.83458 114.981 1.41082 125.345 2.87636 136.562C3.96195 144.773 12.7281 153.671 23.7196 157.788L57.807 170.543C69.2056 174.802 75.0678 185.427 72.7881 194.466C70.4812 203.624 61.3351 210.061 49.9365 211.007C26.4607 212.971 12.5924 201.636 3.4463 181.191C2.30643 184.741 1.27512 188.882 0.650912 193.544C-0.326115 200.785 -0.0818579 207.126 0.569493 212.214C15.4692 214.628 28.0077 215.503 36.9909 215.835C62.1493 216.781 70.5626 213.705 73.9008 212.616C88.6648 207.836 96.7524 197.898 96.8066 186.09C96.8609 175.938 89.9132 165.431 77.7275 160.296Z" fill="#F9ECDF"/>
<path d="M703.921 159.374L662.017 141.673C653.007 137.863 647.416 127.12 648.855 119.595C650.347 111.763 659.52 105.019 668.992 103.196C679.251 101.232 687.583 103.599 690.161 104.498C705.712 110.059 710.706 123.807 711.439 125.961C710.923 121.749 710.733 116.117 711.927 109.657C712.823 104.711 714.315 100.499 715.781 97.1623C691.165 102.037 667.282 88.2649 641.554 107.077C632.028 114.058 627.604 124.423 629.07 135.639C630.155 143.85 638.921 152.748 649.913 156.865L684 169.62C695.399 173.879 701.261 184.504 698.981 193.544C696.675 202.701 687.529 209.138 676.13 210.084C652.654 212.048 638.786 200.714 629.64 180.268C628.5 183.818 627.468 187.959 626.844 192.621C625.867 199.862 626.112 206.204 626.763 211.291C641.663 213.705 654.201 214.58 663.184 214.912C688.343 215.858 696.756 212.782 700.094 211.693C714.858 206.913 722.946 196.975 723 185.167C723.054 175.015 716.107 164.509 703.921 159.374Z" fill="#F9ECDF"/>
<path d="M448.916 100.428C432.144 100.783 416.105 109.704 407.908 124.707C396.238 146.004 396.157 171.371 409.293 191.958C414.91 200.785 423.052 205.825 423.052 205.825C424.654 206.866 429.349 209.777 436.134 211.859C438.033 212.427 462.351 219.526 481.973 207.434C488.812 203.222 492.584 198.418 494.972 194.774C509.791 172.199 508.407 143.661 494.05 121.986C484.334 107.314 467.589 100.05 448.944 100.428H448.916ZM457.248 208.783C446.528 209.398 435.021 204.973 428.996 196.17C405.005 161.243 420.963 106.652 451.088 106.817C459.555 106.865 469.651 111.834 474.781 118.98C499.233 153.103 486.233 207.103 457.248 208.783Z" fill="#F9ECDF"/>
<path d="M142.483 100.144C128.615 100.333 114.746 100.499 100.878 100.688C103.131 101.776 109.617 105.208 112.955 112.259C114.773 116.14 114.991 119.642 114.882 121.819C112.385 181.191 113.606 186.562 112.629 197.235C112.548 198.087 112.358 200.122 111.408 202.654C109.156 208.593 104.406 212.545 100.878 214.911C113.932 214.911 126.986 214.935 140.04 214.959C138.303 214.201 130.216 210.463 128.099 202.772C127.529 200.666 127.529 198.749 127.719 197.164C127.529 169.974 127.366 142.785 127.176 115.619C127.176 114.578 127.176 113.561 127.176 112.52C128.452 110.721 130.216 108.591 132.658 106.462C136.187 103.338 139.796 101.374 142.51 100.144H142.483Z" fill="#F9ECDF"/>
</g>
<defs>
<clipPath id="clip0_2648_1828">
<rect width="723" height="216" fill="white"/>
</clipPath>
</defs>
</svg>
