<svg width="32" height="42" viewBox="0 0 32 42" fill="none" xmlns="http://www.w3.org/2000/svg">
<path d="M1.48121 31.1777C1.86095 35.9607 5.64833 40.022 10.53 40.6237C12.3252 40.8447 14.1503 41 15.9999 41C17.8495 41 19.6747 40.8447 21.4698 40.6237C26.3517 40.022 30.1388 35.9607 30.5186 31.1777C30.7819 27.8634 31 24.4639 31 21C31 17.5361 30.7819 14.1366 30.5186 10.8224C30.1388 6.0393 26.3517 1.97787 21.4698 1.3764C19.6747 1.15523 17.8495 1 15.9999 1C14.1503 1 12.3252 1.15523 10.53 1.3764C5.64833 1.97787 1.86095 6.0393 1.48121 10.8224C1.21806 14.1366 1 17.5361 1 21C1 24.4639 1.21806 27.8634 1.48121 31.1777Z" stroke="#F9ECDF" stroke-width="2"/>
<path d="M18 10.5404L17.2634 11.2167V11.2167L18 10.5404ZM19.2634 13.3951C19.6369 13.8019 20.2695 13.8289 20.6763 13.4554C21.0831 13.0819 21.1101 12.4493 20.7366 12.0424L20 12.7188L19.2634 13.3951ZM11.2634 12.0424C10.8899 12.4493 10.9169 13.0819 11.3237 13.4554C11.7305 13.8289 12.3631 13.8019 12.7366 13.3951L12 12.7187L11.2634 12.0424ZM14 10.5404L14.7366 11.2167V11.2167L14 10.5404ZM14 21.4596L14.7366 20.7833V20.7833L14 21.4596ZM12.7366 18.6049C12.3631 18.1981 11.7305 18.1711 11.3237 18.5446C10.9169 18.9181 10.8899 19.5507 11.2634 19.9576L12 19.2812L12.7366 18.6049ZM20.7366 19.9576C21.1101 19.5507 21.0831 18.9181 20.6763 18.5446C20.2695 18.1711 19.6369 18.1981 19.2634 18.6049L20 19.2812L20.7366 19.9576ZM18 21.4596L18.7366 22.1359V22.1359L18 21.4596ZM16 23H17V9H16H15V23H16ZM18 10.5404L17.2634 11.2167L19.2634 13.3951L20 12.7188L20.7366 12.0424L18.7366 9.86406L18 10.5404ZM12 12.7187L12.7366 13.3951L14.7366 11.2167L14 10.5404L13.2634 9.86405L11.2634 12.0424L12 12.7187ZM18 10.5404L18.7366 9.86406C18.2848 9.37197 17.8785 8.92617 17.5053 8.616C17.1131 8.29011 16.6267 8 16 8V9V10C16 10 15.9998 10 15.9993 9.99997C15.9988 9.99995 15.9982 9.9999 15.9975 9.99982C15.996 9.99965 15.9948 9.99943 15.9944 9.99933C15.9931 9.99903 15.9989 10.0001 16.0135 10.0068C16.0465 10.0217 16.1136 10.0599 16.227 10.1542C16.4716 10.3575 16.7724 10.6818 17.2634 11.2167L18 10.5404ZM14 10.5404L14.7366 11.2167C15.2276 10.6818 15.5284 10.3575 15.773 10.1542C15.8864 10.0599 15.9535 10.0217 15.9865 10.0068C16.0011 10.0001 16.0069 9.99903 16.0056 9.99933C16.0052 9.99943 16.004 9.99965 16.0025 9.99982C16.0018 9.9999 16.0012 9.99995 16.0007 9.99997C16.0002 10 16 10 16 10V9V8C15.3733 8 14.8869 8.29012 14.4947 8.616C14.1215 8.92617 13.7152 9.37197 13.2634 9.86405L14 10.5404ZM14 21.4596L14.7366 20.7833L12.7366 18.6049L12 19.2812L11.2634 19.9576L13.2634 22.1359L14 21.4596ZM20 19.2812L19.2634 18.6049L17.2634 20.7833L18 21.4596L18.7366 22.1359L20.7366 19.9576L20 19.2812ZM14 21.4596L13.2634 22.1359C13.7152 22.628 14.1215 23.0738 14.4947 23.384C14.8869 23.7099 15.3733 24 16 24V23V22C16 22 16.0002 22 16.0007 22C16.0012 22.0001 16.0018 22.0001 16.0025 22.0002C16.004 22.0003 16.0052 22.0006 16.0056 22.0007C16.0069 22.001 16.0011 21.9999 15.9865 21.9932C15.9535 21.9783 15.8864 21.9401 15.773 21.8458C15.5284 21.6425 15.2276 21.3182 14.7366 20.7833L14 21.4596ZM18 21.4596L17.2634 20.7833C16.7724 21.3182 16.4716 21.6425 16.227 21.8458C16.1136 21.9401 16.0465 21.9783 16.0135 21.9932C15.9989 21.9999 15.9931 22.001 15.9944 22.0007C15.9948 22.0006 15.996 22.0003 15.9975 22.0002C15.9982 22.0001 15.9988 22.0001 15.9993 22C15.9998 22 16 22 16 22V23V24C16.6267 24 17.1131 23.7099 17.5053 23.384C17.8785 23.0738 18.2848 22.628 18.7366 22.1359L18 21.4596Z" fill="#F9ECDF"/>
</svg>
