<svg width="327" height="73" viewBox="0 0 327 73" fill="none" xmlns="http://www.w3.org/2000/svg">
<path d="M305.848 69.7741C296.259 74.3444 282.95 74.0632 273.491 68.9003C263.362 63.3758 262.512 57.8512 253.293 51.3323C244.724 45.2754 233.545 45.406 225.136 51.6035C221.066 54.6068 217.687 57.8814 214.117 61.5677C207.528 68.3779 198.598 72.8076 188.829 72.8076L36.3935 72.8377C20.175 72.8377 6.05633 62.1905 1.47676 46.5913C-3.03282 31.2532 3.02661 14.6194 16.3654 5.7099C21.0449 2.57599 26.6744 0.145208 32.5839 0.155253L191.459 0.225565C200.238 0.225565 208.317 5.57932 214.017 11.4755C217.637 15.2221 220.656 18.4966 224.706 21.4698C232.675 27.3158 242.724 28.049 251.363 23.1573C255.793 20.6462 259.263 17.0703 262.472 13.1328C270.152 3.69094 281.341 -0.829115 293.52 0.125119C307.978 1.25011 320.257 11.0034 325.007 24.7745C331.136 42.5232 322.677 61.7686 305.848 69.7942V69.7741ZM310.418 7.99001C296.189 -2.14495 276.241 -0.0355946 264.822 13.0324C262.692 15.4732 260.923 17.6931 258.593 19.9029C248.234 29.6662 234.305 31.0222 222.896 22.2633C219.036 19.3002 216.027 16.096 212.647 12.5402C206.958 6.55364 199.458 1.85278 190.799 1.8327L147.963 1.69207L79.4595 1.67198L33.7637 1.70212C29.3442 1.70212 24.9746 2.98782 21.0949 4.94651C8.38611 11.3549 0.646833 24.7745 1.83672 39.2989C3.21659 56.1638 17.4853 71.0096 34.8536 71.0197L189.559 71.1201C198.478 71.1201 206.658 66.4996 212.717 60.6135C216.027 57.3992 218.796 54.6269 222.226 51.6839C231.005 44.1605 243.464 43.0255 253.353 49.3234C257.583 52.0153 260.933 55.5611 264.282 59.3479C270.512 66.3891 278.811 70.7585 288.29 71.3913C308.108 72.7072 325.287 56.6158 325.297 36.4965C325.297 25.1662 319.627 14.5491 310.418 7.99001Z" fill="#5D3136"/>
<ellipse cx="290.5" cy="35.4944" rx="29.5" ry="29.4944" fill="#5D3136"/>
<path d="M280.359 26H299.998V46" stroke="#F9ECDF" stroke-width="3"/>
<path d="M299.638 26L280 46" stroke="#F9ECDF" stroke-width="3"/>
<path d="M50.85 32.3281C50.7667 31.6406 50.5271 31.0469 50.1312 30.5469C49.7354 30.0469 49.199 29.6719 48.5219 29.4219C47.8552 29.1719 47.0844 29.0469 46.2094 29.0469C45.3031 29.0469 44.5062 29.1875 43.8187 29.4688C43.1312 29.75 42.6 30.1458 42.225 30.6562C41.85 31.1562 41.6625 31.7292 41.6625 32.375C41.6625 33.3229 42.0531 34.0521 42.8344 34.5625C43.6156 35.0729 44.6 35.4792 45.7875 35.7812L47.9594 36.3594C49.8448 36.8177 51.4021 37.5365 52.6312 38.5156C53.8708 39.4948 54.4906 40.9062 54.4906 42.75C54.4906 44.0208 54.1573 45.1615 53.4906 46.1719C52.8344 47.1719 51.8708 47.9583 50.6 48.5312C49.3396 49.0938 47.8396 49.375 46.1 49.375C44.4229 49.375 42.9594 49.1094 41.7094 48.5781C40.4594 48.0365 39.4854 47.2708 38.7875 46.2812C38.0896 45.2812 37.7042 44.099 37.6312 42.7344H41.0687C41.1417 43.5156 41.4073 44.1771 41.8656 44.7188C42.324 45.2604 42.9177 45.6667 43.6469 45.9375C44.376 46.2083 45.1885 46.3438 46.0844 46.3438C47.0427 46.3438 47.9021 46.1927 48.6625 45.8906C49.4229 45.5885 50.0167 45.1615 50.4437 44.6094C50.8708 44.0469 51.0844 43.4062 51.0844 42.6875C51.0844 42.0625 50.9073 41.5365 50.5531 41.1094C50.199 40.6823 49.7146 40.3333 49.1 40.0625C48.4958 39.7812 47.7354 39.5156 46.8187 39.2656L44.1312 38.5625C42.2354 38.0417 40.7823 37.2969 39.7719 36.3281C38.7615 35.349 38.2562 34.0938 38.2562 32.5625C38.2562 31.2812 38.6052 30.151 39.3031 29.1719C40.0115 28.1927 40.9698 27.4323 42.1781 26.8906C43.3969 26.3385 44.7667 26.0625 46.2875 26.0625C47.7979 26.0625 49.1417 26.3333 50.3187 26.875C51.5062 27.4062 52.4385 28.1458 53.1156 29.0938C53.7927 30.0417 54.1469 31.1198 54.1781 32.3281H50.85ZM66.0656 34.6875H56.7844V32.0312H66.0656V34.6875ZM62.6281 27.9688V44.0156C62.6281 44.6198 62.7167 45.0833 62.8937 45.4062C63.0708 45.7292 63.3052 45.9531 63.5969 46.0781C63.8885 46.2031 64.2375 46.2656 64.6437 46.2656C65.1437 46.2656 65.701 46.2448 66.3156 46.2031V49.0781C65.7219 49.1719 65.0344 49.2188 64.2531 49.2188C63.3469 49.2188 62.5135 49.0521 61.7531 48.7188C61.0031 48.375 60.399 47.8646 59.9406 47.1875C59.4927 46.5 59.2687 45.6667 59.2687 44.6875V27.9688H62.6281ZM79.7812 41.3125C79.5104 41.3125 78.6615 41.3646 77.2344 41.4688L75.5469 41.5938C74.4219 41.6771 73.5469 41.9375 72.9219 42.375C72.3073 42.8125 72 43.4375 72 44.25C72 44.7812 72.1354 45.2292 72.4062 45.5938C72.6771 45.9479 73.0573 46.224 73.5469 46.4219C74.0365 46.6094 74.5937 46.7031 75.2187 46.7031C76.1042 46.7031 76.8698 46.5312 77.5156 46.1875C78.1719 45.8333 78.6771 45.3646 79.0312 44.7812C79.3854 44.1875 79.5625 43.5521 79.5625 42.875L79.5469 37.5312C79.5469 36.8854 79.4167 36.3385 79.1562 35.8906C78.9062 35.4323 78.5208 35.0885 78 34.8594C77.4792 34.6198 76.8437 34.5 76.0937 34.5C75.1458 34.5 74.3698 34.6979 73.7656 35.0938C73.1719 35.4792 72.7865 36 72.6094 36.6562H69.2656C69.3802 35.7083 69.7344 34.8698 70.3281 34.1406C70.9219 33.4115 71.724 32.8438 72.7344 32.4375C73.7448 32.0208 74.901 31.8125 76.2031 31.8125C77.2969 31.8125 78.3333 31.9792 79.3125 32.3125C80.3021 32.6354 81.1406 33.2396 81.8281 34.125C82.5156 35 82.8594 36.2031 82.8594 37.7344V49H79.625V46.6719H79.5C79.2708 47.1406 78.9375 47.5781 78.5 47.9844C78.0625 48.3906 77.5 48.724 76.8125 48.9844C76.1354 49.2448 75.3542 49.375 74.4687 49.375C73.375 49.375 72.3958 49.1719 71.5312 48.7656C70.6667 48.3594 69.9844 47.7656 69.4844 46.9844C68.9844 46.2031 68.7344 45.2812 68.7344 44.2188C68.7344 42.4479 69.3281 41.1875 70.5156 40.4375C71.7135 39.6875 73.2344 39.2552 75.0781 39.1406C75.3281 39.1094 76.3177 39.0469 78.0469 38.9531L79.75 38.8906L79.7812 41.3125ZM87.1219 32.0312H90.3406V34.75H90.5281C90.8302 33.8125 91.3719 33.0833 92.1531 32.5625C92.9344 32.0312 93.8146 31.7656 94.7937 31.7656C95.3146 31.7656 95.7937 31.7969 96.2312 31.8594V35.0469C96.0958 34.9948 95.851 34.9479 95.4969 34.9062C95.1427 34.8542 94.8042 34.8281 94.4812 34.8281C93.7312 34.8281 93.049 34.9948 92.4344 35.3281C91.8198 35.651 91.3354 36.1042 90.9812 36.6875C90.6271 37.2708 90.45 37.9271 90.45 38.6562V49H87.1219V32.0312ZM107.853 34.6875H98.5719V32.0312H107.853V34.6875ZM104.416 27.9688V44.0156C104.416 44.6198 104.504 45.0833 104.681 45.4062C104.858 45.7292 105.093 45.9531 105.384 46.0781C105.676 46.2031 106.025 46.2656 106.431 46.2656C106.931 46.2656 107.489 46.2448 108.103 46.2031V49.0781C107.509 49.1719 106.822 49.2188 106.041 49.2188C105.134 49.2188 104.301 49.0521 103.541 48.7188C102.791 48.375 102.186 47.8646 101.728 47.1875C101.28 46.5 101.056 45.6667 101.056 44.6875V27.9688H104.416ZM118.472 26.375H136.019V29.3281H128.987V49H125.534V29.3281H118.472V26.375ZM144.297 49.3438C142.661 49.3438 141.229 48.9844 140 48.2656C138.781 47.5469 137.844 46.5312 137.188 45.2188C136.531 43.9062 136.203 42.3802 136.203 40.6406C136.203 38.901 136.531 37.3646 137.188 36.0312C137.844 34.6875 138.766 33.651 139.953 32.9219C141.141 32.1823 142.51 31.8125 144.062 31.8125C145.438 31.8125 146.693 32.1094 147.828 32.7031C148.964 33.2865 149.875 34.2188 150.562 35.5C151.25 36.7708 151.594 38.3802 151.594 40.3281V41.5H138.078V39.0156H148.328C148.328 38.151 148.151 37.3854 147.797 36.7188C147.453 36.0417 146.958 35.5104 146.312 35.125C145.667 34.7396 144.927 34.5469 144.094 34.5469C143.188 34.5469 142.391 34.7656 141.703 35.2031C141.016 35.6406 140.479 36.2292 140.094 36.9688C139.708 37.7083 139.516 38.5 139.516 39.3438V41.2812C139.516 42.3958 139.714 43.3542 140.109 44.1562C140.516 44.9583 141.078 45.5677 141.797 45.9844C142.526 46.401 143.365 46.6094 144.312 46.6094C144.917 46.6094 145.464 46.526 145.953 46.3594C146.443 46.1823 146.859 45.9635 147.203 45.7031C147.547 45.4323 147.812 45.1146 148 44.75H151.391C151.141 45.6667 150.693 46.4688 150.047 47.1562C149.401 47.8438 148.583 48.3802 147.594 48.7656C146.615 49.151 145.516 49.3438 144.297 49.3438ZM164.606 36.6562C164.45 35.9479 164.096 35.401 163.544 35.0156C163.002 34.6302 162.283 34.4375 161.387 34.4375C160.762 34.4375 160.2 34.5365 159.7 34.7344C159.21 34.9219 158.82 35.1927 158.528 35.5469C158.247 35.8906 158.106 36.2812 158.106 36.7188C158.106 37.2188 158.325 37.651 158.762 38.0156C159.2 38.3802 159.872 38.6615 160.778 38.8594L163.481 39.4844C165.044 39.8385 166.21 40.3958 166.981 41.1562C167.752 41.9062 168.137 42.8802 168.137 44.0781C168.137 45.099 167.856 46.0104 167.294 46.8125C166.742 47.6042 165.945 48.224 164.903 48.6719C163.861 49.1198 162.622 49.3438 161.184 49.3438C159.841 49.3438 158.679 49.151 157.7 48.7656C156.721 48.3698 155.94 47.8021 155.356 47.0625C154.783 46.3125 154.424 45.4167 154.278 44.375H157.7C157.856 45.125 158.221 45.6927 158.794 46.0781C159.377 46.4635 160.164 46.6562 161.153 46.6562C161.861 46.6562 162.481 46.5677 163.012 46.3906C163.554 46.2031 163.971 45.9323 164.262 45.5781C164.565 45.224 164.716 44.8125 164.716 44.3438C164.716 43.7917 164.502 43.3333 164.075 42.9688C163.658 42.6042 162.997 42.3281 162.091 42.1406L159.45 41.5469C157.919 41.2031 156.757 40.6354 155.966 39.8438C155.174 39.0521 154.783 38.0729 154.794 36.9062C154.794 35.9062 155.065 35.0208 155.606 34.25C156.158 33.4792 156.929 32.8802 157.919 32.4531C158.908 32.026 160.059 31.8125 161.372 31.8125C162.601 31.8125 163.684 32.0156 164.622 32.4219C165.559 32.8177 166.299 33.3802 166.841 34.1094C167.382 34.8385 167.7 35.6875 167.794 36.6562H164.606ZM179.541 34.6875H170.259V32.0312H179.541V34.6875ZM176.103 27.9688V44.0156C176.103 44.6198 176.192 45.0833 176.369 45.4062C176.546 45.7292 176.78 45.9531 177.072 46.0781C177.364 46.2031 177.712 46.2656 178.119 46.2656C178.619 46.2656 179.176 46.2448 179.791 46.2031V49.0781C179.197 49.1719 178.509 49.2188 177.728 49.2188C176.822 49.2188 175.989 49.0521 175.228 48.7188C174.478 48.375 173.874 47.8646 173.416 47.1875C172.968 46.5 172.744 45.6667 172.744 44.6875V27.9688H176.103Z" fill="#5D3136"/>
</svg>
