<svg width="327" height="73" viewBox="0 0 327 73" fill="none" xmlns="http://www.w3.org/2000/svg">
<path d="M305.848 69.7741C296.259 74.3444 282.95 74.0632 273.491 68.9003C263.362 63.3758 262.512 57.8512 253.293 51.3323C244.724 45.2754 233.545 45.406 225.136 51.6035C221.066 54.6068 217.687 57.8814 214.117 61.5677C207.528 68.3779 198.598 72.8076 188.829 72.8076L36.3935 72.8377C20.175 72.8377 6.05633 62.1905 1.47676 46.5913C-3.03282 31.2532 3.02661 14.6194 16.3654 5.7099C21.0449 2.57599 26.6744 0.145208 32.5839 0.155253L191.459 0.225565C200.238 0.225565 208.317 5.57932 214.017 11.4755C217.637 15.2221 220.656 18.4966 224.706 21.4698C232.675 27.3158 242.724 28.049 251.363 23.1573C255.793 20.6462 259.263 17.0703 262.472 13.1328C270.152 3.69094 281.341 -0.829115 293.52 0.125119C307.978 1.25011 320.257 11.0034 325.007 24.7745C331.136 42.5232 322.677 61.7686 305.848 69.7942V69.7741ZM310.418 7.99001C296.189 -2.14495 276.241 -0.0355946 264.822 13.0324C262.692 15.4732 260.923 17.6931 258.593 19.9029C248.234 29.6662 234.305 31.0222 222.896 22.2633C219.036 19.3002 216.027 16.096 212.647 12.5402C206.958 6.55364 199.458 1.85278 190.799 1.8327L147.963 1.69207L79.4595 1.67198L33.7637 1.70212C29.3442 1.70212 24.9746 2.98782 21.0949 4.94651C8.38611 11.3549 0.646833 24.7745 1.83672 39.2989C3.21659 56.1638 17.4853 71.0096 34.8536 71.0197L189.559 71.1201C198.478 71.1201 206.658 66.4996 212.717 60.6135C216.027 57.3992 218.796 54.6269 222.226 51.6839C231.005 44.1605 243.464 43.0255 253.353 49.3234C257.583 52.0153 260.933 55.5611 264.282 59.3479C270.512 66.3891 278.811 70.7585 288.29 71.3913C308.108 72.7072 325.287 56.6158 325.297 36.4965C325.297 25.1662 319.627 14.5491 310.418 7.99001Z" fill="#5D3136"/>
<ellipse cx="290.5" cy="35.4944" rx="29.5" ry="29.4944" fill="#5D3136"/>
<path d="M280.359 25H299.998V45" stroke="#F9ECDF" stroke-width="3"/>
<path d="M299.638 25L280 45" stroke="#F9ECDF" stroke-width="3"/>
<path d="M60.3219 25.375H74.525V28.3281H63.7594V35.2031H73.775V38.1406H63.7594V45.0469H74.6344V48H60.3219V25.375ZM84.975 37.625L88.7406 31.0312H92.3969L87.1 39.5L92.4281 48H88.8188L84.975 41.6562L81.2094 48H77.5531L82.7875 39.5L77.6 31.0312H81.2719L84.975 37.625ZM95.6438 31.0312H98.8781V33.7656H99.1594C99.4823 33.2135 99.8104 32.7396 100.144 32.3438C100.477 31.9479 100.967 31.5938 101.613 31.2812C102.269 30.9688 103.081 30.8125 104.05 30.8125C105.415 30.8125 106.633 31.1615 107.706 31.8594C108.79 32.5469 109.633 33.5521 110.238 34.875C110.842 36.1875 111.144 37.7448 111.144 39.5469C111.144 41.3281 110.842 42.8854 110.238 44.2188C109.644 45.5417 108.805 46.5573 107.722 47.2656C106.649 47.9635 105.43 48.3125 104.066 48.3125C103.128 48.3125 102.326 48.1562 101.659 47.8438C101.003 47.5208 100.498 47.1615 100.144 46.7656C99.7896 46.3698 99.4615 45.9062 99.1594 45.375H98.9719V54.375H95.6438V31.0312ZM98.8938 39.5C98.8938 40.6875 99.0656 41.7344 99.4094 42.6406C99.7531 43.5365 100.258 44.2344 100.925 44.7344C101.592 45.2344 102.394 45.4844 103.331 45.4844C104.279 45.4844 105.092 45.2292 105.769 44.7188C106.446 44.1979 106.951 43.4896 107.284 42.5938C107.618 41.6875 107.784 40.6562 107.784 39.5C107.784 38.3646 107.618 37.3542 107.284 36.4688C106.951 35.5833 106.451 34.8958 105.784 34.4062C105.118 33.9062 104.3 33.6562 103.331 33.6562C102.383 33.6562 101.576 33.8958 100.909 34.375C100.253 34.8542 99.7531 35.5312 99.4094 36.4062C99.0656 37.2812 98.8938 38.3125 98.8938 39.5ZM118.016 48H114.688V25.375H118.016V48ZM129.434 48.3438C127.851 48.3438 126.455 47.9792 125.247 47.25C124.049 46.5208 123.122 45.4948 122.466 44.1719C121.809 42.849 121.481 41.3229 121.481 39.5938C121.481 37.8438 121.809 36.3073 122.466 34.9844C123.122 33.6615 124.049 32.6354 125.247 31.9062C126.455 31.1771 127.851 30.8125 129.434 30.8125C131.007 30.8125 132.393 31.1771 133.591 31.9062C134.789 32.6354 135.71 33.6615 136.356 34.9844C137.002 36.3073 137.325 37.8438 137.325 39.5938C137.325 41.3229 137.002 42.849 136.356 44.1719C135.71 45.4948 134.789 46.5208 133.591 47.25C132.393 47.9792 131.007 48.3438 129.434 48.3438ZM129.434 45.5625C130.434 45.5625 131.273 45.2969 131.95 44.7656C132.627 44.224 133.132 43.5052 133.466 42.6094C133.799 41.7031 133.966 40.6927 133.966 39.5781C133.966 38.4635 133.799 37.4531 133.466 36.5469C133.132 35.6406 132.627 34.9219 131.95 34.3906C131.273 33.849 130.434 33.5781 129.434 33.5781C128.434 33.5781 127.591 33.849 126.903 34.3906C126.216 34.9219 125.7 35.6406 125.356 36.5469C125.013 37.4531 124.841 38.4635 124.841 39.5781C124.841 40.6927 125.013 41.7031 125.356 42.6094C125.7 43.5052 126.216 44.224 126.903 44.7656C127.591 45.2969 128.434 45.5625 129.434 45.5625ZM140.869 31.0312H144.088V33.75H144.275C144.577 32.8125 145.119 32.0833 145.9 31.5625C146.681 31.0312 147.561 30.7656 148.541 30.7656C149.061 30.7656 149.541 30.7969 149.978 30.8594V34.0469C149.843 33.9948 149.598 33.9479 149.244 33.9062C148.89 33.8542 148.551 33.8281 148.228 33.8281C147.478 33.8281 146.796 33.9948 146.181 34.3281C145.567 34.651 145.082 35.1042 144.728 35.6875C144.374 36.2708 144.197 36.9271 144.197 37.6562V48H140.869V31.0312ZM159.444 48.3438C157.808 48.3438 156.376 47.9844 155.147 47.2656C153.928 46.5469 152.991 45.5312 152.334 44.2188C151.678 42.9062 151.35 41.3802 151.35 39.6406C151.35 37.901 151.678 36.3646 152.334 35.0312C152.991 33.6875 153.912 32.651 155.1 31.9219C156.287 31.1823 157.657 30.8125 159.209 30.8125C160.584 30.8125 161.84 31.1094 162.975 31.7031C164.11 32.2865 165.022 33.2188 165.709 34.5C166.397 35.7708 166.741 37.3802 166.741 39.3281V40.5H153.225V38.0156H163.475C163.475 37.151 163.298 36.3854 162.944 35.7188C162.6 35.0417 162.105 34.5104 161.459 34.125C160.814 33.7396 160.074 33.5469 159.241 33.5469C158.334 33.5469 157.537 33.7656 156.85 34.2031C156.162 34.6406 155.626 35.2292 155.241 35.9688C154.855 36.7083 154.662 37.5 154.662 38.3438V40.2812C154.662 41.3958 154.86 42.3542 155.256 43.1562C155.662 43.9583 156.225 44.5677 156.944 44.9844C157.673 45.401 158.511 45.6094 159.459 45.6094C160.064 45.6094 160.61 45.526 161.1 45.3594C161.59 45.1823 162.006 44.9635 162.35 44.7031C162.694 44.4323 162.959 44.1146 163.147 43.75H166.537C166.287 44.6667 165.84 45.4688 165.194 46.1562C164.548 46.8438 163.73 47.3802 162.741 47.7656C161.761 48.151 160.662 48.3438 159.444 48.3438Z" fill="#5D3136"/>
</svg>
