<svg width="97" height="967" viewBox="0 0 97 967" fill="none" xmlns="http://www.w3.org/2000/svg">
<path d="M74.5 966.5C61.5213 966.5 51 955.979 51 943L50.9999 24C50.9999 11.0213 61.5213 0.500047 74.4999 0.500002L95.9999 0.5L96 966.5L74.5 966.5Z" stroke="black"/>
<path d="M0.499988 615.551C0.499988 612.138 1.41844 608.866 3.05032 606.464L53.8351 531.705C56.3032 528.072 59.9988 526.999 63.2051 528.985C66.4116 530.972 68.5 535.63 68.5 540.792L68.5 877.208C68.4999 882.371 66.4115 887.027 63.2051 889.014C59.9989 891.001 56.3032 889.929 53.8351 886.296L3.05033 811.537C1.41853 809.135 0.500086 805.863 0.499996 802.45L0.499988 615.551Z" stroke="black" stroke-linejoin="round"/>
</svg>
