<svg width="1080" height="1332" viewBox="0 0 1080 1332" fill="none" xmlns="http://www.w3.org/2000/svg">
<defs>
<pattern id="storySquare3Pattern01" patternContentUnits="objectBoundingBox" width="1" height="1">
<use href="#storySquare3Image01" transform="matrix(0.00117233 0 0 0.00122549 -0.35346 0)"/>
</pattern>
<pattern id="storySquare3Pattern02" patternContentUnits="objectBoundingBox" width="1" height="1">
<use href="#storySquare3Image02" transform="matrix(0.00117233 0 0 0.00122549 -0.35346 0)"/>
</pattern>
<pattern id="storySquare3Pattern03" patternContentUnits="objectBoundingBox" width="1" height="1">
<use href="#storySquare3Image03" transform="matrix(0.00117233 0 0 0.00122549 -0.35346 0)"/>
</pattern>
<pattern id="storySquare3Pattern04" patternContentUnits="objectBoundingBox" width="1" height="1">
<use href="#storySquare3Image04" transform="matrix(0.00117233 0 0 0.00122549 -0.35346 0)"/>
</pattern>
<pattern id="storySquare3Pattern05" patternContentUnits="objectBoundingBox" width="1" height="1">
<use href="#storySquare3Image05" transform="matrix(0.00117233 0 0 0.00122549 -0.35346 0)"/>
</pattern>
<pattern id="storySquare3Pattern06" patternContentUnits="objectBoundingBox" width="1" height="1">
<use href="#storySquare3Image06" transform="matrix(0.00117233 0 0 0.00122549 -0.35346 0)"/>
</pattern>
<image id="storySquare3Image01" width="1456" height="816" preserveAspectRatio="none" href="../img/story_history6.png"/>
<image id="storySquare3Image02" width="1456" height="816" preserveAspectRatio="none" href="../img/story_history5.png"/>
<image id="storySquare3Image03" width="1456" height="816" preserveAspectRatio="none" href="../img/story_history4.png"/>
<image id="storySquare3Image04" width="1456" height="816" preserveAspectRatio="none" href="../img/story_history3.png"/>
<image id="storySquare3Image05" width="1456" height="816" preserveAspectRatio="none" href="../img/story_history2.png"/>
<image id="storySquare3Image06" width="1456" height="816" preserveAspectRatio="none" href="../img/story_history1.png"/>
</defs>
<path d="M949.433 161.28L651.131 0.836426L651.13 315.309L944.644 478.561L949.433 161.28Z" fill="url(#storySquare3Pattern01)"/>
<path d="M820.635 290.341L522.332 129.898L522.332 444.37L815.846 607.622L820.635 290.341Z" fill="url(#storySquare3Pattern02)"/>
<path d="M691.837 400.044L393.534 239.6L393.534 554.072L687.047 717.325L691.837 400.044Z" fill="url(#storySquare3Pattern03)"/>
<path d="M563.038 584.28L264.736 423.836L264.735 738.309L558.249 901.561L563.038 584.28Z" fill="url(#storySquare3Pattern04)"/>
<path d="M691.837 903.28L393.534 742.836L393.534 1057.31L687.047 1220.56L691.837 903.28Z" fill="url(#storySquare3Pattern05)"/>
<path d="M305.441 903.045L7.14252 742.603L7.14202 1057.07L300.652 1220.32L305.441 903.045Z" fill="url(#storySquare3Pattern06)"/>
</svg>
