<svg width="824" height="121" viewBox="0 0 824 121" fill="none" xmlns="http://www.w3.org/2000/svg">
<path d="M24 54H800C812.979 54 823.5 64.5213 823.5 77.5V120H0.5V77.5C0.5 64.5213 11.0213 54 24 54Z" stroke="black"/>
<path d="M388.598 0.5C392.473 0.5 396.188 1.56703 398.915 3.46289L483.794 62.4629C487.919 65.3302 489.137 69.6236 486.881 73.3486C484.625 77.0737 479.337 79.5 473.476 79.5H91.5229C85.6616 79.4999 80.3749 77.0737 78.119 73.3486C75.8633 69.6237 77.0806 65.3302 81.2051 62.4629L166.083 3.46289C168.811 1.56712 172.526 0.500104 176.401 0.5H388.598Z" stroke="black" stroke-linejoin="round"/>
</svg>
