<svg width="1080" height="1332" viewBox="0 0 1080 1332" fill="none" xmlns="http://www.w3.org/2000/svg">
<defs>
<pattern id="storySquare6Pattern01" patternContentUnits="objectBoundingBox" width="1" height="1">
<use href="#storySquare6Image01" transform="matrix(0.00117233 0 0 0.00122549 -0.35346 0)"/>
</pattern>
<pattern id="storySquare6Pattern02" patternContentUnits="objectBoundingBox" width="1" height="1">
<use href="#storySquare6Image02" transform="matrix(0.00117233 0 0 0.00122549 -0.35346 0)"/>
</pattern>
<pattern id="storySquare6Pattern03" patternContentUnits="objectBoundingBox" width="1" height="1">
<use href="#storySquare6Image03" transform="matrix(0.00117233 0 0 0.00122549 -0.35346 0)"/>
</pattern>
<pattern id="storySquare6Pattern04" patternContentUnits="objectBoundingBox" width="1" height="1">
<use href="#storySquare6Image04" transform="matrix(0.00117233 0 0 0.00122549 -0.35346 0)"/>
</pattern>
<pattern id="storySquare6Pattern05" patternContentUnits="objectBoundingBox" width="1" height="1">
<use href="#storySquare6Image05" transform="matrix(0.00117233 0 0 0.00122549 -0.35346 0)"/>
</pattern>
<pattern id="storySquare6Pattern06" patternContentUnits="objectBoundingBox" width="1" height="1">
<use href="#storySquare6Image06" transform="matrix(0.00117233 0 0 0.00122549 -0.35346 0)"/>
</pattern>
<image id="storySquare6Image01" width="1456" height="816" preserveAspectRatio="none" href="../img/story_history4.png"/>
<image id="storySquare6Image02" width="1456" height="816" preserveAspectRatio="none" href="../img/story_history3.png"/>
<image id="storySquare6Image03" width="1456" height="816" preserveAspectRatio="none" href="../img/story_history2.png"/>
<image id="storySquare6Image04" width="1456" height="816" preserveAspectRatio="none" href="../img/story_history1.png"/>
<image id="storySquare6Image05" width="1456" height="816" preserveAspectRatio="none" href="../img/story_history5.png"/>
<image id="storySquare6Image06" width="1456" height="816" preserveAspectRatio="none" href="../img/story_history6.png"/>
</defs>
<path d="M691.837 400.044L393.534 239.6L393.534 554.072L687.047 717.325L691.837 400.044Z" fill="url(#storySquare6Pattern01)"/>
<path d="M563.038 584.28L264.736 423.836L264.735 738.309L558.249 901.561L563.038 584.28Z" fill="url(#storySquare6Pattern02)"/>
<path d="M434.24 667.846L135.938 507.403L135.937 821.875L429.451 985.127L434.24 667.846Z" fill="url(#storySquare6Pattern03)"/>
<path d="M305.442 903.045L7.14258 742.603L7.14208 1057.07L300.652 1220.32L305.442 903.045Z" fill="url(#storySquare6Pattern04)"/>
<path d="M949.433 161.28L651.131 0.836426L651.13 315.309L944.644 478.561L949.433 161.28Z" fill="url(#storySquare6Pattern06)"/>
<path d="M1078.23 468.28L779.929 307.836L779.929 622.309L1073.44 785.561L1078.23 468.28Z" fill="url(#storySquare6Pattern05)"/>
</svg>
