<svg width="346" height="72" viewBox="0 0 346 72" fill="none" xmlns="http://www.w3.org/2000/svg">
<path d="M24 25H322C334.979 25 345.5 35.5213 345.5 48.5V71H0.5V48.5C0.5 35.5213 11.0213 25 24 25Z" stroke="black"/>
<path d="M154.708 0.5C156.396 0.5 158.014 1.13481 159.202 2.26273L196.168 37.364C197.965 39.0699 198.495 41.6242 197.513 43.8403C196.53 46.0565 194.227 47.5 191.674 47.5H25.3251C22.7723 47.4999 20.4698 46.0565 19.4874 43.8403C18.5049 41.6242 19.0351 39.0699 20.8314 37.364L57.7979 2.26273C58.9857 1.13487 60.6037 0.500062 62.2915 0.5H154.708Z" stroke="black" stroke-linejoin="round"/>
</svg>
