<svg width="1670" height="1145" viewBox="0 0 1670 1145" fill="none" xmlns="http://www.w3.org/2000/svg">
<path d="M24 54H1646C1658.98 54 1669.5 64.5213 1669.5 77.5V110H0.5V77.5C0.5 64.5213 11.0213 54 24 54Z" stroke="black"/>
<path d="M388.598 0.5C392.473 0.5 396.188 1.56703 398.915 3.46289L483.794 62.4629C487.919 65.3302 489.137 69.6236 486.881 73.3486C484.625 77.0737 479.337 79.5 473.476 79.5H91.5229C85.6616 79.4999 80.3749 77.0737 78.119 73.3486C75.8633 69.6237 77.0806 65.3302 81.2051 62.4629L166.083 3.46289C168.811 1.56712 172.526 0.500104 176.401 0.5H388.598Z" stroke="black" stroke-linejoin="round"/>
<g filter="url(#filter0_i_3394_1148)">
<rect x="0.5" y="111" width="1669" height="1033" stroke="black"/>
</g>
<defs>
<filter id="filter0_i_3394_1148" x="0" y="110.5" width="1670" height="1038" filterUnits="userSpaceOnUse" color-interpolation-filters="sRGB">
<feFlood flood-opacity="0" result="BackgroundImageFix"/>
<feBlend mode="normal" in="SourceGraphic" in2="BackgroundImageFix" result="shape"/>
<feColorMatrix in="SourceAlpha" type="matrix" values="0 0 0 0 0 0 0 0 0 0 0 0 0 0 0 0 0 0 127 0" result="hardAlpha"/>
<feOffset dy="4"/>
<feGaussianBlur stdDeviation="15"/>
<feComposite in2="hardAlpha" operator="arithmetic" k2="-1" k3="1"/>
<feColorMatrix type="matrix" values="0 0 0 0 0 0 0 0 0 0 0 0 0 0 0 0 0 0 0.2 0"/>
<feBlend mode="normal" in2="shape" result="effect1_innerShadow_3394_1148"/>
</filter>
</defs>
</svg>
