<svg width="1080" height="1332" viewBox="0 0 1080 1332" fill="none" xmlns="http://www.w3.org/2000/svg">
<defs>
<pattern id="storySquare2Pattern01" patternContentUnits="objectBoundingBox" width="1" height="1">
<use href="#storySquare2Image01" transform="matrix(0.00117233 0 0 0.00122549 -0.35346 0)"/>
</pattern>
<pattern id="storySquare2Pattern02" patternContentUnits="objectBoundingBox" width="1" height="1">
<use href="#storySquare2Image02" transform="matrix(0.00117233 0 0 0.00122549 -0.35346 0)"/>
</pattern>
<pattern id="storySquare2Pattern03" patternContentUnits="objectBoundingBox" width="1" height="1">
<use href="#storySquare2Image03" transform="matrix(0.00117233 0 0 0.00122549 -0.35346 0)"/>
</pattern>
<pattern id="storySquare2Pattern04" patternContentUnits="objectBoundingBox" width="1" height="1">
<use href="#storySquare2Image04" transform="matrix(0.00117233 0 0 0.00122549 -0.35346 0)"/>
</pattern>
<pattern id="storySquare2Pattern05" patternContentUnits="objectBoundingBox" width="1" height="1">
<use href="#storySquare2Image05" transform="matrix(0.00117233 0 0 0.00122549 -0.35346 0)"/>
</pattern>
<pattern id="storySquare2Pattern06" patternContentUnits="objectBoundingBox" width="1" height="1">
<use href="#storySquare2Image06" transform="matrix(0.00117233 0 0 0.00122549 -0.35346 0)"/>
</pattern>
<image id="storySquare2Image01" width="1456" height="816" preserveAspectRatio="none" href="../img/story_history6.png"/>
<image id="storySquare2Image02" width="1456" height="816" preserveAspectRatio="none" href="../img/story_history5.png"/>
<image id="storySquare2Image03" width="1456" height="816" preserveAspectRatio="none" href="../img/story_history4.png"/>
<image id="storySquare2Image04" width="1456" height="816" preserveAspectRatio="none" href="../img/story_history3.png"/>
<image id="storySquare2Image05" width="1456" height="816" preserveAspectRatio="none" href="../img/story_history2.png"/>
<image id="storySquare2Image06" width="1456" height="816" preserveAspectRatio="none" href="../img/story_history1.png"/>
</defs>
<path d="M949.433 161.28L651.131 0.836426L651.13 315.309L944.644 478.561L949.433 161.28Z" fill="url(#storySquare2Pattern01)"/>
<path d="M820.635 290.341L522.332 129.898L522.332 444.37L815.846 607.622L820.635 290.341Z" fill="url(#storySquare2Pattern02)"/>
<path d="M691.837 400.044L393.534 239.6L393.534 554.072L687.047 717.325L691.837 400.044Z" fill="url(#storySquare2Pattern03)"/>
<path d="M563.038 584.28L264.736 423.836L264.735 738.309L558.249 901.561L563.038 584.28Z" fill="url(#storySquare2Pattern04)"/>
<path d="M434.24 667.846L135.937 507.403L135.937 821.875L429.451 985.127L434.24 667.846Z" fill="url(#storySquare2Pattern05)"/>
<path d="M569.441 1013.28L271.143 852.836L271.142 1167.31L564.652 1330.56L569.441 1013.28Z" fill="url(#storySquare2Pattern06)"/>
</svg>
