<svg width="790" height="933" viewBox="0 0 790 933" fill="none" xmlns="http://www.w3.org/2000/svg">
<path d="M460.648 301.563C423.488 283.986 364.876 285.525 340.154 300.66L316.063 84.5499C354.09 74.3671 449.086 75.3606 490.288 86.2009L460.648 301.563Z" stroke="black"/>
<path d="M573.792 433.284C569.026 392.454 536.684 343.548 510.756 330.59L681.326 195.722C710.1 222.589 759.558 303.7 772.179 344.393L573.792 433.284Z" stroke="black"/>
<path d="M573.792 498.971C569.026 539.802 536.684 588.707 510.756 601.665L681.326 736.533C710.1 709.666 759.558 628.555 772.179 587.862L573.792 498.971Z" stroke="black"/>
<path d="M460.648 630.692C423.488 648.269 364.876 646.729 340.154 631.595L316.063 847.705C354.09 857.887 449.086 856.894 490.288 846.054L460.648 630.692Z" stroke="black"/>
<path d="M293.213 604.772C258.141 583.331 227.295 533.468 226.398 504.495L32.4536 602.828C44.7857 640.213 97.6972 719.116 129.352 747.631L293.213 604.772Z" stroke="black"/>
<path d="M293.213 327.482C258.141 348.924 227.295 398.786 226.398 427.759L32.4536 329.427C44.7857 292.041 97.6972 213.139 129.352 184.623L293.213 327.482Z" stroke="black"/>
</svg>
