<svg width="1080" height="1332" viewBox="0 0 1080 1332" fill="none" xmlns="http://www.w3.org/2000/svg">
<defs>
<pattern id="storySquare7Pattern01" patternContentUnits="objectBoundingBox" width="1" height="1">
<use href="#storySquare7Image01" transform="matrix(0.00117233 0 0 0.00122549 -0.35346 0)"/>
</pattern>
<pattern id="storySquare7Pattern02" patternContentUnits="objectBoundingBox" width="1" height="1">
<use href="#storySquare7Image02" transform="matrix(0.00117233 0 0 0.00122549 -0.35346 0)"/>
</pattern>
<pattern id="storySquare7Pattern03" patternContentUnits="objectBoundingBox" width="1" height="1">
<use href="#storySquare7Image03" transform="matrix(0.00117233 0 0 0.00122549 -0.35346 0)"/>
</pattern>
<pattern id="storySquare7Pattern04" patternContentUnits="objectBoundingBox" width="1" height="1">
<use href="#storySquare7Image04" transform="matrix(0.00117233 0 0 0.00122549 -0.35346 0)"/>
</pattern>
<pattern id="storySquare7Pattern05" patternContentUnits="objectBoundingBox" width="1" height="1">
<use href="#storySquare7Image05" transform="matrix(0.00117233 0 0 0.00122549 -0.35346 0)"/>
</pattern>
<pattern id="storySquare7Pattern06" patternContentUnits="objectBoundingBox" width="1" height="1">
<use href="#storySquare7Image06" transform="matrix(0.00117233 0 0 0.00122549 -0.35346 0)"/>
</pattern>
<image id="storySquare7Image01" width="1456" height="816" preserveAspectRatio="none" href="../img/story_history6.png"/>
<image id="storySquare7Image02" width="1456" height="816" preserveAspectRatio="none" href="../img/story_history5.png"/>
<image id="storySquare7Image03" width="1456" height="816" preserveAspectRatio="none" href="../img/story_history4.png"/>
<image id="storySquare7Image04" width="1456" height="816" preserveAspectRatio="none" href="../img/story_history3.png"/>
<image id="storySquare7Image05" width="1456" height="816" preserveAspectRatio="none" href="../img/story_history2.png"/>
<image id="storySquare7Image06" width="1456" height="816" preserveAspectRatio="none" href="../img/story_history1.png"/>
</defs>
<path d="M1079.45 297.444L781.143 137L781.142 451.472L1074.66 614.724L1079.45 297.444Z" fill="url(#storySquare7Pattern01)"/>
<path d="M820.635 289.505L522.333 129.062L522.332 443.534L815.846 606.786L820.635 289.505Z" fill="url(#storySquare7Pattern02)"/>
<path d="M691.837 399.207L393.534 238.764L393.534 553.236L687.047 716.488L691.837 399.207Z" fill="url(#storySquare7Pattern03)"/>
<path d="M563.038 583.444L264.736 423L264.735 737.472L558.249 900.724L563.038 583.444Z" fill="url(#storySquare7Pattern04)"/>
<path d="M434.24 667.01L135.938 506.566L135.937 821.039L429.451 984.291L434.24 667.01Z" fill="url(#storySquare7Pattern05)"/>
<path d="M305.442 902.209L7.14258 741.767L7.14208 1056.24L300.652 1219.49L305.442 902.209Z" fill="url(#storySquare7Pattern06)"/>
</svg>
