<svg width="512" height="820" viewBox="0 0 512 820" fill="none" xmlns="http://www.w3.org/2000/svg">
<path d="M438 0.5C450.979 0.5 461.5 11.0213 461.5 24L461.5 796C461.5 808.979 450.979 819.5 438 819.5L416.5 819.5L416.5 0.5L438 0.5Z" stroke="black"/>
<path d="M507 351.449C507 354.862 506.082 358.134 504.45 360.536L453.665 435.295C451.197 438.928 447.501 440.001 444.295 438.015C441.088 436.028 439 431.37 439 426.208L439 89.7915C439 84.629 441.088 79.9725 444.295 77.9856C447.501 75.9988 451.197 77.071 453.665 80.7038L504.45 155.463C506.081 157.865 507 161.137 507 164.55L507 351.449Z" stroke="black" stroke-linejoin="round"/>
<rect x="0.5" y="0.5" width="415" height="819" stroke="black"/>
</svg>
