<svg width="50" height="50" viewBox="0 0 50 50" fill="none" xmlns="http://www.w3.org/2000/svg">
<g clip-path="url(#clip0_1512_539)">
<path d="M33.332 8.33398H16.6654C12.063 8.33398 8.33203 12.0649 8.33203 16.6673V33.334C8.33203 37.9364 12.063 41.6673 16.6654 41.6673H33.332C37.9344 41.6673 41.6654 37.9364 41.6654 33.334V16.6673C41.6654 12.0649 37.9344 8.33398 33.332 8.33398Z" fill="#5D3136" stroke="#5D3136" stroke-linecap="round" stroke-linejoin="round"/>
<path d="M25 31.9297C28.866 31.9297 32 28.7957 32 24.9297C32 21.0637 28.866 17.9297 25 17.9297C21.134 17.9297 18 21.0637 18 24.9297C18 28.7957 21.134 31.9297 25 31.9297Z" fill="white"/>
<path d="M35 15.9297C36.1046 15.9297 37 15.0343 37 13.9297C37 12.8251 36.1046 11.9297 35 11.9297C33.8954 11.9297 33 12.8251 33 13.9297C33 15.0343 33.8954 15.9297 35 15.9297Z" fill="white"/>
</g>
<defs>
<clipPath id="clip0_1512_539">
<rect width="50" height="50" fill="white"/>
</clipPath>
</defs>
</svg>
