<svg width="50" height="50" viewBox="0 0 50 50" fill="none" xmlns="http://www.w3.org/2000/svg">
<g clip-path="url(#clip0_1512_535)">
<path d="M5.55469 41.5159L8.26302 33.3909C5.92228 29.929 5.07551 25.8293 5.88014 21.854C6.68478 17.8788 9.08607 14.2986 12.6375 11.779C16.189 9.2594 20.649 7.97195 25.1882 8.156C29.7274 8.34004 34.037 9.98307 37.3157 12.7796C40.5944 15.5761 42.619 19.3358 43.0132 23.3596C43.4073 27.3835 42.1442 31.3976 39.4586 34.6558C36.773 37.9139 32.8477 40.1943 28.4126 41.0729C23.9775 41.9515 19.3343 41.3686 15.3464 39.4326L5.55469 41.5159Z" fill="#5D3136"/>
<path d="M5.55469 41.5159L8.26302 33.3909C5.92228 29.929 5.07551 25.8293 5.88014 21.854C6.68478 17.8788 9.08607 14.2986 12.6375 11.779C16.189 9.2594 20.649 7.97195 25.1882 8.156C29.7274 8.34004 34.037 9.98307 37.3157 12.7796C40.5944 15.5761 42.619 19.3358 43.0132 23.3596C43.4073 27.3835 42.1442 31.3976 39.4586 34.6558C36.773 37.9139 32.8477 40.1943 28.4126 41.0729C23.9775 41.9515 19.3343 41.3686 15.3464 39.4326L5.55469 41.5159" stroke="#5D3136" stroke-linecap="round" stroke-linejoin="round"/>
<path d="M23.1999 22.263L25.7782 18.1297C26.3111 17.3297 26.9958 16.9297 27.8382 16.9297C28.5228 16.9297 29.1156 17.1839 29.6183 17.6924C30.1175 18.2026 30.3688 18.8088 30.3688 19.5181C30.3688 20.0408 30.2362 20.5039 29.9701 20.9039L27.5331 24.4852L30.536 28.8515C30.8446 29.2604 30.9997 29.7386 30.9997 30.2852C31.0049 30.6303 30.943 30.9729 30.8175 31.2932C30.6921 31.6134 30.5056 31.9047 30.2691 32.1501C29.7829 32.6692 29.1927 32.9297 28.5012 32.9297C27.742 32.9297 27.1622 32.6719 26.7635 32.1564L23.1999 27.0924V29.8186C23.1999 30.5972 22.9286 31.3208 22.6704 31.7519C22.1998 32.5368 21.5004 32.9297 20.5999 32.9297C19.7818 32.9297 19.0807 32.639 18.6318 32.0639C18.2106 31.5306 18 30.8266 18 29.9484V19.8408C18 19.0106 18.2141 18.3244 18.6413 17.7848C19.085 17.215 19.8087 16.9297 20.5999 16.9297C21.3522 16.9297 22.1781 17.215 22.6799 17.7848C22.9598 18.1012 23.1262 18.4195 23.1999 18.7448C23.2449 18.9439 23.1999 19.3164 23.1999 19.8648V22.263Z" fill="white"/>
</g>
<defs>
<clipPath id="clip0_1512_535">
<rect width="50" height="50" fill="white"/>
</clipPath>
</defs>
</svg>
